solid battery_case_v1_top
 facet normal 0 0 0
  outer loop
   vertex -51.9500 -32.0300 33.8000
   vertex 10.0000 -19.0000 33.8000
   vertex 10.0000 -32.0300 33.8000
  endloop
 endfacet
 facet normal 0 0 0
  outer loop
   vertex -51.9500 -32.0300 33.8000
   vertex -51.9500 -19.0000 33.8000
   vertex 10.0000 -19.0000 33.8000
  endloop
 endfacet
 facet normal 0 0 0
  outer loop
   vertex -51.9500 -32.0300 36.6000
   vertex 10.0000 -32.0300 36.6000
   vertex 10.0000 -19.0000 36.6000
  endloop
 endfacet
 facet normal 0 0 0
  outer loop
   vertex -51.9500 -32.0300 36.6000
   vertex 10.0000 -19.0000 36.6000
   vertex -51.9500 -19.0000 36.6000
  endloop
 endfacet
 facet normal 0 0 0
  outer loop
   vertex -51.9500 -32.0300 33.8000
   vertex 10.0000 -32.0300 33.8000
   vertex 10.0000 -32.0300 36.6000
  endloop
 endfacet
 facet normal 0 0 0
  outer loop
   vertex -51.9500 -32.0300 33.8000
   vertex 10.0000 -32.0300 36.6000
   vertex -51.9500 -32.0300 36.6000
  endloop
 endfacet
 facet normal 0 0 0
  outer loop
   vertex 10.0000 -32.0300 33.8000
   vertex 10.0000 -19.0000 33.8000
   vertex 10.0000 -19.0000 36.6000
  endloop
 endfacet
 facet normal 0 0 0
  outer loop
   vertex 10.0000 -32.0300 33.8000
   vertex 10.0000 -19.0000 36.6000
   vertex 10.0000 -32.0300 36.6000
  endloop
 endfacet
 facet normal 0 0 0
  outer loop
   vertex 10.0000 -19.0000 33.8000
   vertex -51.9500 -19.0000 33.8000
   vertex -51.9500 -19.0000 36.6000
  endloop
 endfacet
 facet normal 0 0 0
  outer loop
   vertex 10.0000 -19.0000 33.8000
   vertex -51.9500 -19.0000 36.6000
   vertex 10.0000 -19.0000 36.6000
  endloop
 endfacet
 facet normal 0 0 0
  outer loop
   vertex -51.9500 -19.0000 33.8000
   vertex -51.9500 -32.0300 33.8000
   vertex -51.9500 -32.0300 36.6000
  endloop
 endfacet
 facet normal 0 0 0
  outer loop
   vertex -51.9500 -19.0000 33.8000
   vertex -51.9500 -32.0300 36.6000
   vertex -51.9500 -19.0000 36.6000
  endloop
 endfacet
 facet normal 0 0 0
  outer loop
   vertex -51.9500 -19.0000 33.8000
   vertex 10.0000 -5.0000 33.8000
   vertex 10.0000 -19.0000 33.8000
  endloop
 endfacet
 facet normal 0 0 0
  outer loop
   vertex -51.9500 -19.0000 33.8000
   vertex -51.9500 -5.0000 33.8000
   vertex 10.0000 -5.0000 33.8000
  endloop
 endfacet
 facet normal 0 0 0
  outer loop
   vertex -51.9500 -19.0000 36.6000
   vertex 10.0000 -19.0000 36.6000
   vertex 10.0000 -5.0000 36.6000
  endloop
 endfacet
 facet normal 0 0 0
  outer loop
   vertex -51.9500 -19.0000 36.6000
   vertex 10.0000 -5.0000 36.6000
   vertex -51.9500 -5.0000 36.6000
  endloop
 endfacet
 facet normal 0 0 0
  outer loop
   vertex -51.9500 -19.0000 33.8000
   vertex 10.0000 -19.0000 33.8000
   vertex 10.0000 -19.0000 36.6000
  endloop
 endfacet
 facet normal 0 0 0
  outer loop
   vertex -51.9500 -19.0000 33.8000
   vertex 10.0000 -19.0000 36.6000
   vertex -51.9500 -19.0000 36.6000
  endloop
 endfacet
 facet normal 0 0 0
  outer loop
   vertex 10.0000 -19.0000 33.8000
   vertex 10.0000 -5.0000 33.8000
   vertex 10.0000 -5.0000 36.6000
  endloop
 endfacet
 facet normal 0 0 0
  outer loop
   vertex 10.0000 -19.0000 33.8000
   vertex 10.0000 -5.0000 36.6000
   vertex 10.0000 -19.0000 36.6000
  endloop
 endfacet
 facet normal 0 0 0
  outer loop
   vertex 10.0000 -5.0000 33.8000
   vertex -51.9500 -5.0000 33.8000
   vertex -51.9500 -5.0000 36.6000
  endloop
 endfacet
 facet normal 0 0 0
  outer loop
   vertex 10.0000 -5.0000 33.8000
   vertex -51.9500 -5.0000 36.6000
   vertex 10.0000 -5.0000 36.6000
  endloop
 endfacet
 facet normal 0 0 0
  outer loop
   vertex -51.9500 -5.0000 33.8000
   vertex -51.9500 -19.0000 33.8000
   vertex -51.9500 -19.0000 36.6000
  endloop
 endfacet
 facet normal 0 0 0
  outer loop
   vertex -51.9500 -5.0000 33.8000
   vertex -51.9500 -19.0000 36.6000
   vertex -51.9500 -5.0000 36.6000
  endloop
 endfacet
 facet normal 0 0 0
  outer loop
   vertex -51.9500 -5.0000 33.8000
   vertex 10.0000 6.5000 33.8000
   vertex 10.0000 -5.0000 33.8000
  endloop
 endfacet
 facet normal 0 0 0
  outer loop
   vertex -51.9500 -5.0000 33.8000
   vertex -51.9500 6.5000 33.8000
   vertex 10.0000 6.5000 33.8000
  endloop
 endfacet
 facet normal 0 0 0
  outer loop
   vertex -51.9500 -5.0000 36.6000
   vertex 10.0000 -5.0000 36.6000
   vertex 10.0000 6.5000 36.6000
  endloop
 endfacet
 facet normal 0 0 0
  outer loop
   vertex -51.9500 -5.0000 36.6000
   vertex 10.0000 6.5000 36.6000
   vertex -51.9500 6.5000 36.6000
  endloop
 endfacet
 facet normal 0 0 0
  outer loop
   vertex -51.9500 -5.0000 33.8000
   vertex 10.0000 -5.0000 33.8000
   vertex 10.0000 -5.0000 36.6000
  endloop
 endfacet
 facet normal 0 0 0
  outer loop
   vertex -51.9500 -5.0000 33.8000
   vertex 10.0000 -5.0000 36.6000
   vertex -51.9500 -5.0000 36.6000
  endloop
 endfacet
 facet normal 0 0 0
  outer loop
   vertex 10.0000 -5.0000 33.8000
   vertex 10.0000 6.5000 33.8000
   vertex 10.0000 6.5000 36.6000
  endloop
 endfacet
 facet normal 0 0 0
  outer loop
   vertex 10.0000 -5.0000 33.8000
   vertex 10.0000 6.5000 36.6000
   vertex 10.0000 -5.0000 36.6000
  endloop
 endfacet
 facet normal 0 0 0
  outer loop
   vertex 10.0000 6.5000 33.8000
   vertex -51.9500 6.5000 33.8000
   vertex -51.9500 6.5000 36.6000
  endloop
 endfacet
 facet normal 0 0 0
  outer loop
   vertex 10.0000 6.5000 33.8000
   vertex -51.9500 6.5000 36.6000
   vertex 10.0000 6.5000 36.6000
  endloop
 endfacet
 facet normal 0 0 0
  outer loop
   vertex -51.9500 6.5000 33.8000
   vertex -51.9500 -5.0000 33.8000
   vertex -51.9500 -5.0000 36.6000
  endloop
 endfacet
 facet normal 0 0 0
  outer loop
   vertex -51.9500 6.5000 33.8000
   vertex -51.9500 -5.0000 36.6000
   vertex -51.9500 6.5000 36.6000
  endloop
 endfacet
 facet normal 0 0 0
  outer loop
   vertex -51.9500 6.5000 33.8000
   vertex 10.0000 13.5000 33.8000
   vertex 10.0000 6.5000 33.8000
  endloop
 endfacet
 facet normal 0 0 0
  outer loop
   vertex -51.9500 6.5000 33.8000
   vertex -51.9500 13.5000 33.8000
   vertex 10.0000 13.5000 33.8000
  endloop
 endfacet
 facet normal 0 0 0
  outer loop
   vertex -51.9500 6.5000 36.6000
   vertex 10.0000 6.5000 36.6000
   vertex 10.0000 13.5000 36.6000
  endloop
 endfacet
 facet normal 0 0 0
  outer loop
   vertex -51.9500 6.5000 36.6000
   vertex 10.0000 13.5000 36.6000
   vertex -51.9500 13.5000 36.6000
  endloop
 endfacet
 facet normal 0 0 0
  outer loop
   vertex -51.9500 6.5000 33.8000
   vertex 10.0000 6.5000 33.8000
   vertex 10.0000 6.5000 36.6000
  endloop
 endfacet
 facet normal 0 0 0
  outer loop
   vertex -51.9500 6.5000 33.8000
   vertex 10.0000 6.5000 36.6000
   vertex -51.9500 6.5000 36.6000
  endloop
 endfacet
 facet normal 0 0 0
  outer loop
   vertex 10.0000 6.5000 33.8000
   vertex 10.0000 13.5000 33.8000
   vertex 10.0000 13.5000 36.6000
  endloop
 endfacet
 facet normal 0 0 0
  outer loop
   vertex 10.0000 6.5000 33.8000
   vertex 10.0000 13.5000 36.6000
   vertex 10.0000 6.5000 36.6000
  endloop
 endfacet
 facet normal 0 0 0
  outer loop
   vertex 10.0000 13.5000 33.8000
   vertex -51.9500 13.5000 33.8000
   vertex -51.9500 13.5000 36.6000
  endloop
 endfacet
 facet normal 0 0 0
  outer loop
   vertex 10.0000 13.5000 33.8000
   vertex -51.9500 13.5000 36.6000
   vertex 10.0000 13.5000 36.6000
  endloop
 endfacet
 facet normal 0 0 0
  outer loop
   vertex -51.9500 13.5000 33.8000
   vertex -51.9500 6.5000 33.8000
   vertex -51.9500 6.5000 36.6000
  endloop
 endfacet
 facet normal 0 0 0
  outer loop
   vertex -51.9500 13.5000 33.8000
   vertex -51.9500 6.5000 36.6000
   vertex -51.9500 13.5000 36.6000
  endloop
 endfacet
 facet normal 0 0 0
  outer loop
   vertex -51.9500 13.5000 33.8000
   vertex 10.0000 32.0300 33.8000
   vertex 10.0000 13.5000 33.8000
  endloop
 endfacet
 facet normal 0 0 0
  outer loop
   vertex -51.9500 13.5000 33.8000
   vertex -51.9500 32.0300 33.8000
   vertex 10.0000 32.0300 33.8000
  endloop
 endfacet
 facet normal 0 0 0
  outer loop
   vertex -51.9500 13.5000 36.6000
   vertex 10.0000 13.5000 36.6000
   vertex 10.0000 32.0300 36.6000
  endloop
 endfacet
 facet normal 0 0 0
  outer loop
   vertex -51.9500 13.5000 36.6000
   vertex 10.0000 32.0300 36.6000
   vertex -51.9500 32.0300 36.6000
  endloop
 endfacet
 facet normal 0 0 0
  outer loop
   vertex -51.9500 13.5000 33.8000
   vertex 10.0000 13.5000 33.8000
   vertex 10.0000 13.5000 36.6000
  endloop
 endfacet
 facet normal 0 0 0
  outer loop
   vertex -51.9500 13.5000 33.8000
   vertex 10.0000 13.5000 36.6000
   vertex -51.9500 13.5000 36.6000
  endloop
 endfacet
 facet normal 0 0 0
  outer loop
   vertex 10.0000 13.5000 33.8000
   vertex 10.0000 32.0300 33.8000
   vertex 10.0000 32.0300 36.6000
  endloop
 endfacet
 facet normal 0 0 0
  outer loop
   vertex 10.0000 13.5000 33.8000
   vertex 10.0000 32.0300 36.6000
   vertex 10.0000 13.5000 36.6000
  endloop
 endfacet
 facet normal 0 0 0
  outer loop
   vertex 10.0000 32.0300 33.8000
   vertex -51.9500 32.0300 33.8000
   vertex -51.9500 32.0300 36.6000
  endloop
 endfacet
 facet normal 0 0 0
  outer loop
   vertex 10.0000 32.0300 33.8000
   vertex -51.9500 32.0300 36.6000
   vertex 10.0000 32.0300 36.6000
  endloop
 endfacet
 facet normal 0 0 0
  outer loop
   vertex -51.9500 32.0300 33.8000
   vertex -51.9500 13.5000 33.8000
   vertex -51.9500 13.5000 36.6000
  endloop
 endfacet
 facet normal 0 0 0
  outer loop
   vertex -51.9500 32.0300 33.8000
   vertex -51.9500 13.5000 36.6000
   vertex -51.9500 32.0300 36.6000
  endloop
 endfacet
 facet normal 0 0 0
  outer loop
   vertex 10.0000 -32.0300 33.8000
   vertex 17.0000 -19.0000 33.8000
   vertex 17.0000 -32.0300 33.8000
  endloop
 endfacet
 facet normal 0 0 0
  outer loop
   vertex 10.0000 -32.0300 33.8000
   vertex 10.0000 -19.0000 33.8000
   vertex 17.0000 -19.0000 33.8000
  endloop
 endfacet
 facet normal 0 0 0
  outer loop
   vertex 10.0000 -32.0300 36.6000
   vertex 17.0000 -32.0300 36.6000
   vertex 17.0000 -19.0000 36.6000
  endloop
 endfacet
 facet normal 0 0 0
  outer loop
   vertex 10.0000 -32.0300 36.6000
   vertex 17.0000 -19.0000 36.6000
   vertex 10.0000 -19.0000 36.6000
  endloop
 endfacet
 facet normal 0 0 0
  outer loop
   vertex 10.0000 -32.0300 33.8000
   vertex 17.0000 -32.0300 33.8000
   vertex 17.0000 -32.0300 36.6000
  endloop
 endfacet
 facet normal 0 0 0
  outer loop
   vertex 10.0000 -32.0300 33.8000
   vertex 17.0000 -32.0300 36.6000
   vertex 10.0000 -32.0300 36.6000
  endloop
 endfacet
 facet normal 0 0 0
  outer loop
   vertex 17.0000 -32.0300 33.8000
   vertex 17.0000 -19.0000 33.8000
   vertex 17.0000 -19.0000 36.6000
  endloop
 endfacet
 facet normal 0 0 0
  outer loop
   vertex 17.0000 -32.0300 33.8000
   vertex 17.0000 -19.0000 36.6000
   vertex 17.0000 -32.0300 36.6000
  endloop
 endfacet
 facet normal 0 0 0
  outer loop
   vertex 17.0000 -19.0000 33.8000
   vertex 10.0000 -19.0000 33.8000
   vertex 10.0000 -19.0000 36.6000
  endloop
 endfacet
 facet normal 0 0 0
  outer loop
   vertex 17.0000 -19.0000 33.8000
   vertex 10.0000 -19.0000 36.6000
   vertex 17.0000 -19.0000 36.6000
  endloop
 endfacet
 facet normal 0 0 0
  outer loop
   vertex 10.0000 -19.0000 33.8000
   vertex 10.0000 -32.0300 33.8000
   vertex 10.0000 -32.0300 36.6000
  endloop
 endfacet
 facet normal 0 0 0
  outer loop
   vertex 10.0000 -19.0000 33.8000
   vertex 10.0000 -32.0300 36.6000
   vertex 10.0000 -19.0000 36.6000
  endloop
 endfacet
 facet normal 0 0 0
  outer loop
   vertex 10.0000 -19.0000 33.8000
   vertex 17.0000 -5.0000 33.8000
   vertex 17.0000 -19.0000 33.8000
  endloop
 endfacet
 facet normal 0 0 0
  outer loop
   vertex 10.0000 -19.0000 33.8000
   vertex 10.0000 -5.0000 33.8000
   vertex 17.0000 -5.0000 33.8000
  endloop
 endfacet
 facet normal 0 0 0
  outer loop
   vertex 10.0000 -19.0000 36.6000
   vertex 17.0000 -19.0000 36.6000
   vertex 17.0000 -5.0000 36.6000
  endloop
 endfacet
 facet normal 0 0 0
  outer loop
   vertex 10.0000 -19.0000 36.6000
   vertex 17.0000 -5.0000 36.6000
   vertex 10.0000 -5.0000 36.6000
  endloop
 endfacet
 facet normal 0 0 0
  outer loop
   vertex 10.0000 -19.0000 33.8000
   vertex 17.0000 -19.0000 33.8000
   vertex 17.0000 -19.0000 36.6000
  endloop
 endfacet
 facet normal 0 0 0
  outer loop
   vertex 10.0000 -19.0000 33.8000
   vertex 17.0000 -19.0000 36.6000
   vertex 10.0000 -19.0000 36.6000
  endloop
 endfacet
 facet normal 0 0 0
  outer loop
   vertex 17.0000 -19.0000 33.8000
   vertex 17.0000 -5.0000 33.8000
   vertex 17.0000 -5.0000 36.6000
  endloop
 endfacet
 facet normal 0 0 0
  outer loop
   vertex 17.0000 -19.0000 33.8000
   vertex 17.0000 -5.0000 36.6000
   vertex 17.0000 -19.0000 36.6000
  endloop
 endfacet
 facet normal 0 0 0
  outer loop
   vertex 17.0000 -5.0000 33.8000
   vertex 10.0000 -5.0000 33.8000
   vertex 10.0000 -5.0000 36.6000
  endloop
 endfacet
 facet normal 0 0 0
  outer loop
   vertex 17.0000 -5.0000 33.8000
   vertex 10.0000 -5.0000 36.6000
   vertex 17.0000 -5.0000 36.6000
  endloop
 endfacet
 facet normal 0 0 0
  outer loop
   vertex 10.0000 -5.0000 33.8000
   vertex 10.0000 -19.0000 33.8000
   vertex 10.0000 -19.0000 36.6000
  endloop
 endfacet
 facet normal 0 0 0
  outer loop
   vertex 10.0000 -5.0000 33.8000
   vertex 10.0000 -19.0000 36.6000
   vertex 10.0000 -5.0000 36.6000
  endloop
 endfacet
 facet normal 0 0 0
  outer loop
   vertex 10.0000 -5.0000 33.8000
   vertex 17.0000 6.5000 33.8000
   vertex 17.0000 -5.0000 33.8000
  endloop
 endfacet
 facet normal 0 0 0
  outer loop
   vertex 10.0000 -5.0000 33.8000
   vertex 10.0000 6.5000 33.8000
   vertex 17.0000 6.5000 33.8000
  endloop
 endfacet
 facet normal 0 0 0
  outer loop
   vertex 10.0000 -5.0000 36.6000
   vertex 17.0000 -5.0000 36.6000
   vertex 17.0000 6.5000 36.6000
  endloop
 endfacet
 facet normal 0 0 0
  outer loop
   vertex 10.0000 -5.0000 36.6000
   vertex 17.0000 6.5000 36.6000
   vertex 10.0000 6.5000 36.6000
  endloop
 endfacet
 facet normal 0 0 0
  outer loop
   vertex 10.0000 -5.0000 33.8000
   vertex 17.0000 -5.0000 33.8000
   vertex 17.0000 -5.0000 36.6000
  endloop
 endfacet
 facet normal 0 0 0
  outer loop
   vertex 10.0000 -5.0000 33.8000
   vertex 17.0000 -5.0000 36.6000
   vertex 10.0000 -5.0000 36.6000
  endloop
 endfacet
 facet normal 0 0 0
  outer loop
   vertex 17.0000 -5.0000 33.8000
   vertex 17.0000 6.5000 33.8000
   vertex 17.0000 6.5000 36.6000
  endloop
 endfacet
 facet normal 0 0 0
  outer loop
   vertex 17.0000 -5.0000 33.8000
   vertex 17.0000 6.5000 36.6000
   vertex 17.0000 -5.0000 36.6000
  endloop
 endfacet
 facet normal 0 0 0
  outer loop
   vertex 17.0000 6.5000 33.8000
   vertex 10.0000 6.5000 33.8000
   vertex 10.0000 6.5000 36.6000
  endloop
 endfacet
 facet normal 0 0 0
  outer loop
   vertex 17.0000 6.5000 33.8000
   vertex 10.0000 6.5000 36.6000
   vertex 17.0000 6.5000 36.6000
  endloop
 endfacet
 facet normal 0 0 0
  outer loop
   vertex 10.0000 6.5000 33.8000
   vertex 10.0000 -5.0000 33.8000
   vertex 10.0000 -5.0000 36.6000
  endloop
 endfacet
 facet normal 0 0 0
  outer loop
   vertex 10.0000 6.5000 33.8000
   vertex 10.0000 -5.0000 36.6000
   vertex 10.0000 6.5000 36.6000
  endloop
 endfacet
 facet normal 0 0 0
  outer loop
   vertex 10.0000 13.5000 33.8000
   vertex 17.0000 32.0300 33.8000
   vertex 17.0000 13.5000 33.8000
  endloop
 endfacet
 facet normal 0 0 0
  outer loop
   vertex 10.0000 13.5000 33.8000
   vertex 10.0000 32.0300 33.8000
   vertex 17.0000 32.0300 33.8000
  endloop
 endfacet
 facet normal 0 0 0
  outer loop
   vertex 10.0000 13.5000 36.6000
   vertex 17.0000 13.5000 36.6000
   vertex 17.0000 32.0300 36.6000
  endloop
 endfacet
 facet normal 0 0 0
  outer loop
   vertex 10.0000 13.5000 36.6000
   vertex 17.0000 32.0300 36.6000
   vertex 10.0000 32.0300 36.6000
  endloop
 endfacet
 facet normal 0 0 0
  outer loop
   vertex 10.0000 13.5000 33.8000
   vertex 17.0000 13.5000 33.8000
   vertex 17.0000 13.5000 36.6000
  endloop
 endfacet
 facet normal 0 0 0
  outer loop
   vertex 10.0000 13.5000 33.8000
   vertex 17.0000 13.5000 36.6000
   vertex 10.0000 13.5000 36.6000
  endloop
 endfacet
 facet normal 0 0 0
  outer loop
   vertex 17.0000 13.5000 33.8000
   vertex 17.0000 32.0300 33.8000
   vertex 17.0000 32.0300 36.6000
  endloop
 endfacet
 facet normal 0 0 0
  outer loop
   vertex 17.0000 13.5000 33.8000
   vertex 17.0000 32.0300 36.6000
   vertex 17.0000 13.5000 36.6000
  endloop
 endfacet
 facet normal 0 0 0
  outer loop
   vertex 17.0000 32.0300 33.8000
   vertex 10.0000 32.0300 33.8000
   vertex 10.0000 32.0300 36.6000
  endloop
 endfacet
 facet normal 0 0 0
  outer loop
   vertex 17.0000 32.0300 33.8000
   vertex 10.0000 32.0300 36.6000
   vertex 17.0000 32.0300 36.6000
  endloop
 endfacet
 facet normal 0 0 0
  outer loop
   vertex 10.0000 32.0300 33.8000
   vertex 10.0000 13.5000 33.8000
   vertex 10.0000 13.5000 36.6000
  endloop
 endfacet
 facet normal 0 0 0
  outer loop
   vertex 10.0000 32.0300 33.8000
   vertex 10.0000 13.5000 36.6000
   vertex 10.0000 32.0300 36.6000
  endloop
 endfacet
 facet normal 0 0 0
  outer loop
   vertex 17.0000 -32.0300 33.8000
   vertex 31.0000 -19.0000 33.8000
   vertex 31.0000 -32.0300 33.8000
  endloop
 endfacet
 facet normal 0 0 0
  outer loop
   vertex 17.0000 -32.0300 33.8000
   vertex 17.0000 -19.0000 33.8000
   vertex 31.0000 -19.0000 33.8000
  endloop
 endfacet
 facet normal 0 0 0
  outer loop
   vertex 17.0000 -32.0300 36.6000
   vertex 31.0000 -32.0300 36.6000
   vertex 31.0000 -19.0000 36.6000
  endloop
 endfacet
 facet normal 0 0 0
  outer loop
   vertex 17.0000 -32.0300 36.6000
   vertex 31.0000 -19.0000 36.6000
   vertex 17.0000 -19.0000 36.6000
  endloop
 endfacet
 facet normal 0 0 0
  outer loop
   vertex 17.0000 -32.0300 33.8000
   vertex 31.0000 -32.0300 33.8000
   vertex 31.0000 -32.0300 36.6000
  endloop
 endfacet
 facet normal 0 0 0
  outer loop
   vertex 17.0000 -32.0300 33.8000
   vertex 31.0000 -32.0300 36.6000
   vertex 17.0000 -32.0300 36.6000
  endloop
 endfacet
 facet normal 0 0 0
  outer loop
   vertex 31.0000 -32.0300 33.8000
   vertex 31.0000 -19.0000 33.8000
   vertex 31.0000 -19.0000 36.6000
  endloop
 endfacet
 facet normal 0 0 0
  outer loop
   vertex 31.0000 -32.0300 33.8000
   vertex 31.0000 -19.0000 36.6000
   vertex 31.0000 -32.0300 36.6000
  endloop
 endfacet
 facet normal 0 0 0
  outer loop
   vertex 31.0000 -19.0000 33.8000
   vertex 17.0000 -19.0000 33.8000
   vertex 17.0000 -19.0000 36.6000
  endloop
 endfacet
 facet normal 0 0 0
  outer loop
   vertex 31.0000 -19.0000 33.8000
   vertex 17.0000 -19.0000 36.6000
   vertex 31.0000 -19.0000 36.6000
  endloop
 endfacet
 facet normal 0 0 0
  outer loop
   vertex 17.0000 -19.0000 33.8000
   vertex 17.0000 -32.0300 33.8000
   vertex 17.0000 -32.0300 36.6000
  endloop
 endfacet
 facet normal 0 0 0
  outer loop
   vertex 17.0000 -19.0000 33.8000
   vertex 17.0000 -32.0300 36.6000
   vertex 17.0000 -19.0000 36.6000
  endloop
 endfacet
 facet normal 0 0 0
  outer loop
   vertex 17.0000 -5.0000 33.8000
   vertex 31.0000 6.5000 33.8000
   vertex 31.0000 -5.0000 33.8000
  endloop
 endfacet
 facet normal 0 0 0
  outer loop
   vertex 17.0000 -5.0000 33.8000
   vertex 17.0000 6.5000 33.8000
   vertex 31.0000 6.5000 33.8000
  endloop
 endfacet
 facet normal 0 0 0
  outer loop
   vertex 17.0000 -5.0000 36.6000
   vertex 31.0000 -5.0000 36.6000
   vertex 31.0000 6.5000 36.6000
  endloop
 endfacet
 facet normal 0 0 0
  outer loop
   vertex 17.0000 -5.0000 36.6000
   vertex 31.0000 6.5000 36.6000
   vertex 17.0000 6.5000 36.6000
  endloop
 endfacet
 facet normal 0 0 0
  outer loop
   vertex 17.0000 -5.0000 33.8000
   vertex 31.0000 -5.0000 33.8000
   vertex 31.0000 -5.0000 36.6000
  endloop
 endfacet
 facet normal 0 0 0
  outer loop
   vertex 17.0000 -5.0000 33.8000
   vertex 31.0000 -5.0000 36.6000
   vertex 17.0000 -5.0000 36.6000
  endloop
 endfacet
 facet normal 0 0 0
  outer loop
   vertex 31.0000 -5.0000 33.8000
   vertex 31.0000 6.5000 33.8000
   vertex 31.0000 6.5000 36.6000
  endloop
 endfacet
 facet normal 0 0 0
  outer loop
   vertex 31.0000 -5.0000 33.8000
   vertex 31.0000 6.5000 36.6000
   vertex 31.0000 -5.0000 36.6000
  endloop
 endfacet
 facet normal 0 0 0
  outer loop
   vertex 31.0000 6.5000 33.8000
   vertex 17.0000 6.5000 33.8000
   vertex 17.0000 6.5000 36.6000
  endloop
 endfacet
 facet normal 0 0 0
  outer loop
   vertex 31.0000 6.5000 33.8000
   vertex 17.0000 6.5000 36.6000
   vertex 31.0000 6.5000 36.6000
  endloop
 endfacet
 facet normal 0 0 0
  outer loop
   vertex 17.0000 6.5000 33.8000
   vertex 17.0000 -5.0000 33.8000
   vertex 17.0000 -5.0000 36.6000
  endloop
 endfacet
 facet normal 0 0 0
  outer loop
   vertex 17.0000 6.5000 33.8000
   vertex 17.0000 -5.0000 36.6000
   vertex 17.0000 6.5000 36.6000
  endloop
 endfacet
 facet normal 0 0 0
  outer loop
   vertex 17.0000 13.5000 33.8000
   vertex 31.0000 32.0300 33.8000
   vertex 31.0000 13.5000 33.8000
  endloop
 endfacet
 facet normal 0 0 0
  outer loop
   vertex 17.0000 13.5000 33.8000
   vertex 17.0000 32.0300 33.8000
   vertex 31.0000 32.0300 33.8000
  endloop
 endfacet
 facet normal 0 0 0
  outer loop
   vertex 17.0000 13.5000 36.6000
   vertex 31.0000 13.5000 36.6000
   vertex 31.0000 32.0300 36.6000
  endloop
 endfacet
 facet normal 0 0 0
  outer loop
   vertex 17.0000 13.5000 36.6000
   vertex 31.0000 32.0300 36.6000
   vertex 17.0000 32.0300 36.6000
  endloop
 endfacet
 facet normal 0 0 0
  outer loop
   vertex 17.0000 13.5000 33.8000
   vertex 31.0000 13.5000 33.8000
   vertex 31.0000 13.5000 36.6000
  endloop
 endfacet
 facet normal 0 0 0
  outer loop
   vertex 17.0000 13.5000 33.8000
   vertex 31.0000 13.5000 36.6000
   vertex 17.0000 13.5000 36.6000
  endloop
 endfacet
 facet normal 0 0 0
  outer loop
   vertex 31.0000 13.5000 33.8000
   vertex 31.0000 32.0300 33.8000
   vertex 31.0000 32.0300 36.6000
  endloop
 endfacet
 facet normal 0 0 0
  outer loop
   vertex 31.0000 13.5000 33.8000
   vertex 31.0000 32.0300 36.6000
   vertex 31.0000 13.5000 36.6000
  endloop
 endfacet
 facet normal 0 0 0
  outer loop
   vertex 31.0000 32.0300 33.8000
   vertex 17.0000 32.0300 33.8000
   vertex 17.0000 32.0300 36.6000
  endloop
 endfacet
 facet normal 0 0 0
  outer loop
   vertex 31.0000 32.0300 33.8000
   vertex 17.0000 32.0300 36.6000
   vertex 31.0000 32.0300 36.6000
  endloop
 endfacet
 facet normal 0 0 0
  outer loop
   vertex 17.0000 32.0300 33.8000
   vertex 17.0000 13.5000 33.8000
   vertex 17.0000 13.5000 36.6000
  endloop
 endfacet
 facet normal 0 0 0
  outer loop
   vertex 17.0000 32.0300 33.8000
   vertex 17.0000 13.5000 36.6000
   vertex 17.0000 32.0300 36.6000
  endloop
 endfacet
 facet normal 0 0 0
  outer loop
   vertex 31.0000 -32.0300 33.8000
   vertex 38.0000 -19.0000 33.8000
   vertex 38.0000 -32.0300 33.8000
  endloop
 endfacet
 facet normal 0 0 0
  outer loop
   vertex 31.0000 -32.0300 33.8000
   vertex 31.0000 -19.0000 33.8000
   vertex 38.0000 -19.0000 33.8000
  endloop
 endfacet
 facet normal 0 0 0
  outer loop
   vertex 31.0000 -32.0300 36.6000
   vertex 38.0000 -32.0300 36.6000
   vertex 38.0000 -19.0000 36.6000
  endloop
 endfacet
 facet normal 0 0 0
  outer loop
   vertex 31.0000 -32.0300 36.6000
   vertex 38.0000 -19.0000 36.6000
   vertex 31.0000 -19.0000 36.6000
  endloop
 endfacet
 facet normal 0 0 0
  outer loop
   vertex 31.0000 -32.0300 33.8000
   vertex 38.0000 -32.0300 33.8000
   vertex 38.0000 -32.0300 36.6000
  endloop
 endfacet
 facet normal 0 0 0
  outer loop
   vertex 31.0000 -32.0300 33.8000
   vertex 38.0000 -32.0300 36.6000
   vertex 31.0000 -32.0300 36.6000
  endloop
 endfacet
 facet normal 0 0 0
  outer loop
   vertex 38.0000 -32.0300 33.8000
   vertex 38.0000 -19.0000 33.8000
   vertex 38.0000 -19.0000 36.6000
  endloop
 endfacet
 facet normal 0 0 0
  outer loop
   vertex 38.0000 -32.0300 33.8000
   vertex 38.0000 -19.0000 36.6000
   vertex 38.0000 -32.0300 36.6000
  endloop
 endfacet
 facet normal 0 0 0
  outer loop
   vertex 38.0000 -19.0000 33.8000
   vertex 31.0000 -19.0000 33.8000
   vertex 31.0000 -19.0000 36.6000
  endloop
 endfacet
 facet normal 0 0 0
  outer loop
   vertex 38.0000 -19.0000 33.8000
   vertex 31.0000 -19.0000 36.6000
   vertex 38.0000 -19.0000 36.6000
  endloop
 endfacet
 facet normal 0 0 0
  outer loop
   vertex 31.0000 -19.0000 33.8000
   vertex 31.0000 -32.0300 33.8000
   vertex 31.0000 -32.0300 36.6000
  endloop
 endfacet
 facet normal 0 0 0
  outer loop
   vertex 31.0000 -19.0000 33.8000
   vertex 31.0000 -32.0300 36.6000
   vertex 31.0000 -19.0000 36.6000
  endloop
 endfacet
 facet normal 0 0 0
  outer loop
   vertex 31.0000 -19.0000 33.8000
   vertex 38.0000 -5.0000 33.8000
   vertex 38.0000 -19.0000 33.8000
  endloop
 endfacet
 facet normal 0 0 0
  outer loop
   vertex 31.0000 -19.0000 33.8000
   vertex 31.0000 -5.0000 33.8000
   vertex 38.0000 -5.0000 33.8000
  endloop
 endfacet
 facet normal 0 0 0
  outer loop
   vertex 31.0000 -19.0000 36.6000
   vertex 38.0000 -19.0000 36.6000
   vertex 38.0000 -5.0000 36.6000
  endloop
 endfacet
 facet normal 0 0 0
  outer loop
   vertex 31.0000 -19.0000 36.6000
   vertex 38.0000 -5.0000 36.6000
   vertex 31.0000 -5.0000 36.6000
  endloop
 endfacet
 facet normal 0 0 0
  outer loop
   vertex 31.0000 -19.0000 33.8000
   vertex 38.0000 -19.0000 33.8000
   vertex 38.0000 -19.0000 36.6000
  endloop
 endfacet
 facet normal 0 0 0
  outer loop
   vertex 31.0000 -19.0000 33.8000
   vertex 38.0000 -19.0000 36.6000
   vertex 31.0000 -19.0000 36.6000
  endloop
 endfacet
 facet normal 0 0 0
  outer loop
   vertex 38.0000 -19.0000 33.8000
   vertex 38.0000 -5.0000 33.8000
   vertex 38.0000 -5.0000 36.6000
  endloop
 endfacet
 facet normal 0 0 0
  outer loop
   vertex 38.0000 -19.0000 33.8000
   vertex 38.0000 -5.0000 36.6000
   vertex 38.0000 -19.0000 36.6000
  endloop
 endfacet
 facet normal 0 0 0
  outer loop
   vertex 38.0000 -5.0000 33.8000
   vertex 31.0000 -5.0000 33.8000
   vertex 31.0000 -5.0000 36.6000
  endloop
 endfacet
 facet normal 0 0 0
  outer loop
   vertex 38.0000 -5.0000 33.8000
   vertex 31.0000 -5.0000 36.6000
   vertex 38.0000 -5.0000 36.6000
  endloop
 endfacet
 facet normal 0 0 0
  outer loop
   vertex 31.0000 -5.0000 33.8000
   vertex 31.0000 -19.0000 33.8000
   vertex 31.0000 -19.0000 36.6000
  endloop
 endfacet
 facet normal 0 0 0
  outer loop
   vertex 31.0000 -5.0000 33.8000
   vertex 31.0000 -19.0000 36.6000
   vertex 31.0000 -5.0000 36.6000
  endloop
 endfacet
 facet normal 0 0 0
  outer loop
   vertex 31.0000 -5.0000 33.8000
   vertex 38.0000 6.5000 33.8000
   vertex 38.0000 -5.0000 33.8000
  endloop
 endfacet
 facet normal 0 0 0
  outer loop
   vertex 31.0000 -5.0000 33.8000
   vertex 31.0000 6.5000 33.8000
   vertex 38.0000 6.5000 33.8000
  endloop
 endfacet
 facet normal 0 0 0
  outer loop
   vertex 31.0000 -5.0000 36.6000
   vertex 38.0000 -5.0000 36.6000
   vertex 38.0000 6.5000 36.6000
  endloop
 endfacet
 facet normal 0 0 0
  outer loop
   vertex 31.0000 -5.0000 36.6000
   vertex 38.0000 6.5000 36.6000
   vertex 31.0000 6.5000 36.6000
  endloop
 endfacet
 facet normal 0 0 0
  outer loop
   vertex 31.0000 -5.0000 33.8000
   vertex 38.0000 -5.0000 33.8000
   vertex 38.0000 -5.0000 36.6000
  endloop
 endfacet
 facet normal 0 0 0
  outer loop
   vertex 31.0000 -5.0000 33.8000
   vertex 38.0000 -5.0000 36.6000
   vertex 31.0000 -5.0000 36.6000
  endloop
 endfacet
 facet normal 0 0 0
  outer loop
   vertex 38.0000 -5.0000 33.8000
   vertex 38.0000 6.5000 33.8000
   vertex 38.0000 6.5000 36.6000
  endloop
 endfacet
 facet normal 0 0 0
  outer loop
   vertex 38.0000 -5.0000 33.8000
   vertex 38.0000 6.5000 36.6000
   vertex 38.0000 -5.0000 36.6000
  endloop
 endfacet
 facet normal 0 0 0
  outer loop
   vertex 38.0000 6.5000 33.8000
   vertex 31.0000 6.5000 33.8000
   vertex 31.0000 6.5000 36.6000
  endloop
 endfacet
 facet normal 0 0 0
  outer loop
   vertex 38.0000 6.5000 33.8000
   vertex 31.0000 6.5000 36.6000
   vertex 38.0000 6.5000 36.6000
  endloop
 endfacet
 facet normal 0 0 0
  outer loop
   vertex 31.0000 6.5000 33.8000
   vertex 31.0000 -5.0000 33.8000
   vertex 31.0000 -5.0000 36.6000
  endloop
 endfacet
 facet normal 0 0 0
  outer loop
   vertex 31.0000 6.5000 33.8000
   vertex 31.0000 -5.0000 36.6000
   vertex 31.0000 6.5000 36.6000
  endloop
 endfacet
 facet normal 0 0 0
  outer loop
   vertex 31.0000 13.5000 33.8000
   vertex 38.0000 32.0300 33.8000
   vertex 38.0000 13.5000 33.8000
  endloop
 endfacet
 facet normal 0 0 0
  outer loop
   vertex 31.0000 13.5000 33.8000
   vertex 31.0000 32.0300 33.8000
   vertex 38.0000 32.0300 33.8000
  endloop
 endfacet
 facet normal 0 0 0
  outer loop
   vertex 31.0000 13.5000 36.6000
   vertex 38.0000 13.5000 36.6000
   vertex 38.0000 32.0300 36.6000
  endloop
 endfacet
 facet normal 0 0 0
  outer loop
   vertex 31.0000 13.5000 36.6000
   vertex 38.0000 32.0300 36.6000
   vertex 31.0000 32.0300 36.6000
  endloop
 endfacet
 facet normal 0 0 0
  outer loop
   vertex 31.0000 13.5000 33.8000
   vertex 38.0000 13.5000 33.8000
   vertex 38.0000 13.5000 36.6000
  endloop
 endfacet
 facet normal 0 0 0
  outer loop
   vertex 31.0000 13.5000 33.8000
   vertex 38.0000 13.5000 36.6000
   vertex 31.0000 13.5000 36.6000
  endloop
 endfacet
 facet normal 0 0 0
  outer loop
   vertex 38.0000 13.5000 33.8000
   vertex 38.0000 32.0300 33.8000
   vertex 38.0000 32.0300 36.6000
  endloop
 endfacet
 facet normal 0 0 0
  outer loop
   vertex 38.0000 13.5000 33.8000
   vertex 38.0000 32.0300 36.6000
   vertex 38.0000 13.5000 36.6000
  endloop
 endfacet
 facet normal 0 0 0
  outer loop
   vertex 38.0000 32.0300 33.8000
   vertex 31.0000 32.0300 33.8000
   vertex 31.0000 32.0300 36.6000
  endloop
 endfacet
 facet normal 0 0 0
  outer loop
   vertex 38.0000 32.0300 33.8000
   vertex 31.0000 32.0300 36.6000
   vertex 38.0000 32.0300 36.6000
  endloop
 endfacet
 facet normal 0 0 0
  outer loop
   vertex 31.0000 32.0300 33.8000
   vertex 31.0000 13.5000 33.8000
   vertex 31.0000 13.5000 36.6000
  endloop
 endfacet
 facet normal 0 0 0
  outer loop
   vertex 31.0000 32.0300 33.8000
   vertex 31.0000 13.5000 36.6000
   vertex 31.0000 32.0300 36.6000
  endloop
 endfacet
 facet normal 0 0 0
  outer loop
   vertex 38.0000 -32.0300 33.8000
   vertex 51.9500 -19.0000 33.8000
   vertex 51.9500 -32.0300 33.8000
  endloop
 endfacet
 facet normal 0 0 0
  outer loop
   vertex 38.0000 -32.0300 33.8000
   vertex 38.0000 -19.0000 33.8000
   vertex 51.9500 -19.0000 33.8000
  endloop
 endfacet
 facet normal 0 0 0
  outer loop
   vertex 38.0000 -32.0300 36.6000
   vertex 51.9500 -32.0300 36.6000
   vertex 51.9500 -19.0000 36.6000
  endloop
 endfacet
 facet normal 0 0 0
  outer loop
   vertex 38.0000 -32.0300 36.6000
   vertex 51.9500 -19.0000 36.6000
   vertex 38.0000 -19.0000 36.6000
  endloop
 endfacet
 facet normal 0 0 0
  outer loop
   vertex 38.0000 -32.0300 33.8000
   vertex 51.9500 -32.0300 33.8000
   vertex 51.9500 -32.0300 36.6000
  endloop
 endfacet
 facet normal 0 0 0
  outer loop
   vertex 38.0000 -32.0300 33.8000
   vertex 51.9500 -32.0300 36.6000
   vertex 38.0000 -32.0300 36.6000
  endloop
 endfacet
 facet normal 0 0 0
  outer loop
   vertex 51.9500 -32.0300 33.8000
   vertex 51.9500 -19.0000 33.8000
   vertex 51.9500 -19.0000 36.6000
  endloop
 endfacet
 facet normal 0 0 0
  outer loop
   vertex 51.9500 -32.0300 33.8000
   vertex 51.9500 -19.0000 36.6000
   vertex 51.9500 -32.0300 36.6000
  endloop
 endfacet
 facet normal 0 0 0
  outer loop
   vertex 51.9500 -19.0000 33.8000
   vertex 38.0000 -19.0000 33.8000
   vertex 38.0000 -19.0000 36.6000
  endloop
 endfacet
 facet normal 0 0 0
  outer loop
   vertex 51.9500 -19.0000 33.8000
   vertex 38.0000 -19.0000 36.6000
   vertex 51.9500 -19.0000 36.6000
  endloop
 endfacet
 facet normal 0 0 0
  outer loop
   vertex 38.0000 -19.0000 33.8000
   vertex 38.0000 -32.0300 33.8000
   vertex 38.0000 -32.0300 36.6000
  endloop
 endfacet
 facet normal 0 0 0
  outer loop
   vertex 38.0000 -19.0000 33.8000
   vertex 38.0000 -32.0300 36.6000
   vertex 38.0000 -19.0000 36.6000
  endloop
 endfacet
 facet normal 0 0 0
  outer loop
   vertex 38.0000 -19.0000 33.8000
   vertex 51.9500 -5.0000 33.8000
   vertex 51.9500 -19.0000 33.8000
  endloop
 endfacet
 facet normal 0 0 0
  outer loop
   vertex 38.0000 -19.0000 33.8000
   vertex 38.0000 -5.0000 33.8000
   vertex 51.9500 -5.0000 33.8000
  endloop
 endfacet
 facet normal 0 0 0
  outer loop
   vertex 38.0000 -19.0000 36.6000
   vertex 51.9500 -19.0000 36.6000
   vertex 51.9500 -5.0000 36.6000
  endloop
 endfacet
 facet normal 0 0 0
  outer loop
   vertex 38.0000 -19.0000 36.6000
   vertex 51.9500 -5.0000 36.6000
   vertex 38.0000 -5.0000 36.6000
  endloop
 endfacet
 facet normal 0 0 0
  outer loop
   vertex 38.0000 -19.0000 33.8000
   vertex 51.9500 -19.0000 33.8000
   vertex 51.9500 -19.0000 36.6000
  endloop
 endfacet
 facet normal 0 0 0
  outer loop
   vertex 38.0000 -19.0000 33.8000
   vertex 51.9500 -19.0000 36.6000
   vertex 38.0000 -19.0000 36.6000
  endloop
 endfacet
 facet normal 0 0 0
  outer loop
   vertex 51.9500 -19.0000 33.8000
   vertex 51.9500 -5.0000 33.8000
   vertex 51.9500 -5.0000 36.6000
  endloop
 endfacet
 facet normal 0 0 0
  outer loop
   vertex 51.9500 -19.0000 33.8000
   vertex 51.9500 -5.0000 36.6000
   vertex 51.9500 -19.0000 36.6000
  endloop
 endfacet
 facet normal 0 0 0
  outer loop
   vertex 51.9500 -5.0000 33.8000
   vertex 38.0000 -5.0000 33.8000
   vertex 38.0000 -5.0000 36.6000
  endloop
 endfacet
 facet normal 0 0 0
  outer loop
   vertex 51.9500 -5.0000 33.8000
   vertex 38.0000 -5.0000 36.6000
   vertex 51.9500 -5.0000 36.6000
  endloop
 endfacet
 facet normal 0 0 0
  outer loop
   vertex 38.0000 -5.0000 33.8000
   vertex 38.0000 -19.0000 33.8000
   vertex 38.0000 -19.0000 36.6000
  endloop
 endfacet
 facet normal 0 0 0
  outer loop
   vertex 38.0000 -5.0000 33.8000
   vertex 38.0000 -19.0000 36.6000
   vertex 38.0000 -5.0000 36.6000
  endloop
 endfacet
 facet normal 0 0 0
  outer loop
   vertex 38.0000 -5.0000 33.8000
   vertex 51.9500 6.5000 33.8000
   vertex 51.9500 -5.0000 33.8000
  endloop
 endfacet
 facet normal 0 0 0
  outer loop
   vertex 38.0000 -5.0000 33.8000
   vertex 38.0000 6.5000 33.8000
   vertex 51.9500 6.5000 33.8000
  endloop
 endfacet
 facet normal 0 0 0
  outer loop
   vertex 38.0000 -5.0000 36.6000
   vertex 51.9500 -5.0000 36.6000
   vertex 51.9500 6.5000 36.6000
  endloop
 endfacet
 facet normal 0 0 0
  outer loop
   vertex 38.0000 -5.0000 36.6000
   vertex 51.9500 6.5000 36.6000
   vertex 38.0000 6.5000 36.6000
  endloop
 endfacet
 facet normal 0 0 0
  outer loop
   vertex 38.0000 -5.0000 33.8000
   vertex 51.9500 -5.0000 33.8000
   vertex 51.9500 -5.0000 36.6000
  endloop
 endfacet
 facet normal 0 0 0
  outer loop
   vertex 38.0000 -5.0000 33.8000
   vertex 51.9500 -5.0000 36.6000
   vertex 38.0000 -5.0000 36.6000
  endloop
 endfacet
 facet normal 0 0 0
  outer loop
   vertex 51.9500 -5.0000 33.8000
   vertex 51.9500 6.5000 33.8000
   vertex 51.9500 6.5000 36.6000
  endloop
 endfacet
 facet normal 0 0 0
  outer loop
   vertex 51.9500 -5.0000 33.8000
   vertex 51.9500 6.5000 36.6000
   vertex 51.9500 -5.0000 36.6000
  endloop
 endfacet
 facet normal 0 0 0
  outer loop
   vertex 51.9500 6.5000 33.8000
   vertex 38.0000 6.5000 33.8000
   vertex 38.0000 6.5000 36.6000
  endloop
 endfacet
 facet normal 0 0 0
  outer loop
   vertex 51.9500 6.5000 33.8000
   vertex 38.0000 6.5000 36.6000
   vertex 51.9500 6.5000 36.6000
  endloop
 endfacet
 facet normal 0 0 0
  outer loop
   vertex 38.0000 6.5000 33.8000
   vertex 38.0000 -5.0000 33.8000
   vertex 38.0000 -5.0000 36.6000
  endloop
 endfacet
 facet normal 0 0 0
  outer loop
   vertex 38.0000 6.5000 33.8000
   vertex 38.0000 -5.0000 36.6000
   vertex 38.0000 6.5000 36.6000
  endloop
 endfacet
 facet normal 0 0 0
  outer loop
   vertex 38.0000 6.5000 33.8000
   vertex 51.9500 13.5000 33.8000
   vertex 51.9500 6.5000 33.8000
  endloop
 endfacet
 facet normal 0 0 0
  outer loop
   vertex 38.0000 6.5000 33.8000
   vertex 38.0000 13.5000 33.8000
   vertex 51.9500 13.5000 33.8000
  endloop
 endfacet
 facet normal 0 0 0
  outer loop
   vertex 38.0000 6.5000 36.6000
   vertex 51.9500 6.5000 36.6000
   vertex 51.9500 13.5000 36.6000
  endloop
 endfacet
 facet normal 0 0 0
  outer loop
   vertex 38.0000 6.5000 36.6000
   vertex 51.9500 13.5000 36.6000
   vertex 38.0000 13.5000 36.6000
  endloop
 endfacet
 facet normal 0 0 0
  outer loop
   vertex 38.0000 6.5000 33.8000
   vertex 51.9500 6.5000 33.8000
   vertex 51.9500 6.5000 36.6000
  endloop
 endfacet
 facet normal 0 0 0
  outer loop
   vertex 38.0000 6.5000 33.8000
   vertex 51.9500 6.5000 36.6000
   vertex 38.0000 6.5000 36.6000
  endloop
 endfacet
 facet normal 0 0 0
  outer loop
   vertex 51.9500 6.5000 33.8000
   vertex 51.9500 13.5000 33.8000
   vertex 51.9500 13.5000 36.6000
  endloop
 endfacet
 facet normal 0 0 0
  outer loop
   vertex 51.9500 6.5000 33.8000
   vertex 51.9500 13.5000 36.6000
   vertex 51.9500 6.5000 36.6000
  endloop
 endfacet
 facet normal 0 0 0
  outer loop
   vertex 51.9500 13.5000 33.8000
   vertex 38.0000 13.5000 33.8000
   vertex 38.0000 13.5000 36.6000
  endloop
 endfacet
 facet normal 0 0 0
  outer loop
   vertex 51.9500 13.5000 33.8000
   vertex 38.0000 13.5000 36.6000
   vertex 51.9500 13.5000 36.6000
  endloop
 endfacet
 facet normal 0 0 0
  outer loop
   vertex 38.0000 13.5000 33.8000
   vertex 38.0000 6.5000 33.8000
   vertex 38.0000 6.5000 36.6000
  endloop
 endfacet
 facet normal 0 0 0
  outer loop
   vertex 38.0000 13.5000 33.8000
   vertex 38.0000 6.5000 36.6000
   vertex 38.0000 13.5000 36.6000
  endloop
 endfacet
 facet normal 0 0 0
  outer loop
   vertex 38.0000 13.5000 33.8000
   vertex 51.9500 32.0300 33.8000
   vertex 51.9500 13.5000 33.8000
  endloop
 endfacet
 facet normal 0 0 0
  outer loop
   vertex 38.0000 13.5000 33.8000
   vertex 38.0000 32.0300 33.8000
   vertex 51.9500 32.0300 33.8000
  endloop
 endfacet
 facet normal 0 0 0
  outer loop
   vertex 38.0000 13.5000 36.6000
   vertex 51.9500 13.5000 36.6000
   vertex 51.9500 32.0300 36.6000
  endloop
 endfacet
 facet normal 0 0 0
  outer loop
   vertex 38.0000 13.5000 36.6000
   vertex 51.9500 32.0300 36.6000
   vertex 38.0000 32.0300 36.6000
  endloop
 endfacet
 facet normal 0 0 0
  outer loop
   vertex 38.0000 13.5000 33.8000
   vertex 51.9500 13.5000 33.8000
   vertex 51.9500 13.5000 36.6000
  endloop
 endfacet
 facet normal 0 0 0
  outer loop
   vertex 38.0000 13.5000 33.8000
   vertex 51.9500 13.5000 36.6000
   vertex 38.0000 13.5000 36.6000
  endloop
 endfacet
 facet normal 0 0 0
  outer loop
   vertex 51.9500 13.5000 33.8000
   vertex 51.9500 32.0300 33.8000
   vertex 51.9500 32.0300 36.6000
  endloop
 endfacet
 facet normal 0 0 0
  outer loop
   vertex 51.9500 13.5000 33.8000
   vertex 51.9500 32.0300 36.6000
   vertex 51.9500 13.5000 36.6000
  endloop
 endfacet
 facet normal 0 0 0
  outer loop
   vertex 51.9500 32.0300 33.8000
   vertex 38.0000 32.0300 33.8000
   vertex 38.0000 32.0300 36.6000
  endloop
 endfacet
 facet normal 0 0 0
  outer loop
   vertex 51.9500 32.0300 33.8000
   vertex 38.0000 32.0300 36.6000
   vertex 51.9500 32.0300 36.6000
  endloop
 endfacet
 facet normal 0 0 0
  outer loop
   vertex 38.0000 32.0300 33.8000
   vertex 38.0000 13.5000 33.8000
   vertex 38.0000 13.5000 36.6000
  endloop
 endfacet
 facet normal 0 0 0
  outer loop
   vertex 38.0000 32.0300 33.8000
   vertex 38.0000 13.5000 36.6000
   vertex 38.0000 32.0300 36.6000
  endloop
 endfacet
 facet normal 0 0 0
  outer loop
   vertex -48.8000 -28.8800 32.0000
   vertex 48.8000 28.8800 32.0000
   vertex 48.8000 -28.8800 32.0000
  endloop
 endfacet
 facet normal 0 0 0
  outer loop
   vertex -48.8000 -28.8800 32.0000
   vertex -48.8000 28.8800 32.0000
   vertex 48.8000 28.8800 32.0000
  endloop
 endfacet
 facet normal 0 0 0
  outer loop
   vertex -48.8000 -28.8800 33.8000
   vertex 48.8000 -28.8800 33.8000
   vertex 48.8000 28.8800 33.8000
  endloop
 endfacet
 facet normal 0 0 0
  outer loop
   vertex -48.8000 -28.8800 33.8000
   vertex 48.8000 28.8800 33.8000
   vertex -48.8000 28.8800 33.8000
  endloop
 endfacet
 facet normal 0 0 0
  outer loop
   vertex -48.8000 -28.8800 32.0000
   vertex 48.8000 -28.8800 32.0000
   vertex 48.8000 -28.8800 33.8000
  endloop
 endfacet
 facet normal 0 0 0
  outer loop
   vertex -48.8000 -28.8800 32.0000
   vertex 48.8000 -28.8800 33.8000
   vertex -48.8000 -28.8800 33.8000
  endloop
 endfacet
 facet normal 0 0 0
  outer loop
   vertex 48.8000 -28.8800 32.0000
   vertex 48.8000 28.8800 32.0000
   vertex 48.8000 28.8800 33.8000
  endloop
 endfacet
 facet normal 0 0 0
  outer loop
   vertex 48.8000 -28.8800 32.0000
   vertex 48.8000 28.8800 33.8000
   vertex 48.8000 -28.8800 33.8000
  endloop
 endfacet
 facet normal 0 0 0
  outer loop
   vertex 48.8000 28.8800 32.0000
   vertex -48.8000 28.8800 32.0000
   vertex -48.8000 28.8800 33.8000
  endloop
 endfacet
 facet normal 0 0 0
  outer loop
   vertex 48.8000 28.8800 32.0000
   vertex -48.8000 28.8800 33.8000
   vertex 48.8000 28.8800 33.8000
  endloop
 endfacet
 facet normal 0 0 0
  outer loop
   vertex -48.8000 28.8800 32.0000
   vertex -48.8000 -28.8800 32.0000
   vertex -48.8000 -28.8800 33.8000
  endloop
 endfacet
 facet normal 0 0 0
  outer loop
   vertex -48.8000 28.8800 32.0000
   vertex -48.8000 -28.8800 33.8000
   vertex -48.8000 28.8800 33.8000
  endloop
 endfacet
 facet normal 0 0 0
  outer loop
   vertex -47.7000 -27.7800 32.0000
   vertex -40.2000 -20.2800 32.0000
   vertex -40.2000 -27.7800 32.0000
  endloop
 endfacet
 facet normal 0 0 0
  outer loop
   vertex -47.7000 -27.7800 32.0000
   vertex -47.7000 -20.2800 32.0000
   vertex -40.2000 -20.2800 32.0000
  endloop
 endfacet
 facet normal 0 0 0
  outer loop
   vertex -47.7000 -27.7800 36.6000
   vertex -40.2000 -27.7800 36.6000
   vertex -40.2000 -20.2800 36.6000
  endloop
 endfacet
 facet normal 0 0 0
  outer loop
   vertex -47.7000 -27.7800 36.6000
   vertex -40.2000 -20.2800 36.6000
   vertex -47.7000 -20.2800 36.6000
  endloop
 endfacet
 facet normal 0 0 0
  outer loop
   vertex -47.7000 -27.7800 32.0000
   vertex -40.2000 -27.7800 32.0000
   vertex -40.2000 -27.7800 36.6000
  endloop
 endfacet
 facet normal 0 0 0
  outer loop
   vertex -47.7000 -27.7800 32.0000
   vertex -40.2000 -27.7800 36.6000
   vertex -47.7000 -27.7800 36.6000
  endloop
 endfacet
 facet normal 0 0 0
  outer loop
   vertex -40.2000 -27.7800 32.0000
   vertex -40.2000 -20.2800 32.0000
   vertex -40.2000 -20.2800 36.6000
  endloop
 endfacet
 facet normal 0 0 0
  outer loop
   vertex -40.2000 -27.7800 32.0000
   vertex -40.2000 -20.2800 36.6000
   vertex -40.2000 -27.7800 36.6000
  endloop
 endfacet
 facet normal 0 0 0
  outer loop
   vertex -40.2000 -20.2800 32.0000
   vertex -47.7000 -20.2800 32.0000
   vertex -47.7000 -20.2800 36.6000
  endloop
 endfacet
 facet normal 0 0 0
  outer loop
   vertex -40.2000 -20.2800 32.0000
   vertex -47.7000 -20.2800 36.6000
   vertex -40.2000 -20.2800 36.6000
  endloop
 endfacet
 facet normal 0 0 0
  outer loop
   vertex -47.7000 -20.2800 32.0000
   vertex -47.7000 -27.7800 32.0000
   vertex -47.7000 -27.7800 36.6000
  endloop
 endfacet
 facet normal 0 0 0
  outer loop
   vertex -47.7000 -20.2800 32.0000
   vertex -47.7000 -27.7800 36.6000
   vertex -47.7000 -20.2800 36.6000
  endloop
 endfacet
 facet normal 0 0 0
  outer loop
   vertex -47.7000 20.2800 32.0000
   vertex -40.2000 27.7800 32.0000
   vertex -40.2000 20.2800 32.0000
  endloop
 endfacet
 facet normal 0 0 0
  outer loop
   vertex -47.7000 20.2800 32.0000
   vertex -47.7000 27.7800 32.0000
   vertex -40.2000 27.7800 32.0000
  endloop
 endfacet
 facet normal 0 0 0
  outer loop
   vertex -47.7000 20.2800 36.6000
   vertex -40.2000 20.2800 36.6000
   vertex -40.2000 27.7800 36.6000
  endloop
 endfacet
 facet normal 0 0 0
  outer loop
   vertex -47.7000 20.2800 36.6000
   vertex -40.2000 27.7800 36.6000
   vertex -47.7000 27.7800 36.6000
  endloop
 endfacet
 facet normal 0 0 0
  outer loop
   vertex -47.7000 20.2800 32.0000
   vertex -40.2000 20.2800 32.0000
   vertex -40.2000 20.2800 36.6000
  endloop
 endfacet
 facet normal 0 0 0
  outer loop
   vertex -47.7000 20.2800 32.0000
   vertex -40.2000 20.2800 36.6000
   vertex -47.7000 20.2800 36.6000
  endloop
 endfacet
 facet normal 0 0 0
  outer loop
   vertex -40.2000 20.2800 32.0000
   vertex -40.2000 27.7800 32.0000
   vertex -40.2000 27.7800 36.6000
  endloop
 endfacet
 facet normal 0 0 0
  outer loop
   vertex -40.2000 20.2800 32.0000
   vertex -40.2000 27.7800 36.6000
   vertex -40.2000 20.2800 36.6000
  endloop
 endfacet
 facet normal 0 0 0
  outer loop
   vertex -40.2000 27.7800 32.0000
   vertex -47.7000 27.7800 32.0000
   vertex -47.7000 27.7800 36.6000
  endloop
 endfacet
 facet normal 0 0 0
  outer loop
   vertex -40.2000 27.7800 32.0000
   vertex -47.7000 27.7800 36.6000
   vertex -40.2000 27.7800 36.6000
  endloop
 endfacet
 facet normal 0 0 0
  outer loop
   vertex -47.7000 27.7800 32.0000
   vertex -47.7000 20.2800 32.0000
   vertex -47.7000 20.2800 36.6000
  endloop
 endfacet
 facet normal 0 0 0
  outer loop
   vertex -47.7000 27.7800 32.0000
   vertex -47.7000 20.2800 36.6000
   vertex -47.7000 27.7800 36.6000
  endloop
 endfacet
 facet normal 0 0 0
  outer loop
   vertex 40.2000 -27.7800 32.0000
   vertex 47.7000 -20.2800 32.0000
   vertex 47.7000 -27.7800 32.0000
  endloop
 endfacet
 facet normal 0 0 0
  outer loop
   vertex 40.2000 -27.7800 32.0000
   vertex 40.2000 -20.2800 32.0000
   vertex 47.7000 -20.2800 32.0000
  endloop
 endfacet
 facet normal 0 0 0
  outer loop
   vertex 40.2000 -27.7800 36.6000
   vertex 47.7000 -27.7800 36.6000
   vertex 47.7000 -20.2800 36.6000
  endloop
 endfacet
 facet normal 0 0 0
  outer loop
   vertex 40.2000 -27.7800 36.6000
   vertex 47.7000 -20.2800 36.6000
   vertex 40.2000 -20.2800 36.6000
  endloop
 endfacet
 facet normal 0 0 0
  outer loop
   vertex 40.2000 -27.7800 32.0000
   vertex 47.7000 -27.7800 32.0000
   vertex 47.7000 -27.7800 36.6000
  endloop
 endfacet
 facet normal 0 0 0
  outer loop
   vertex 40.2000 -27.7800 32.0000
   vertex 47.7000 -27.7800 36.6000
   vertex 40.2000 -27.7800 36.6000
  endloop
 endfacet
 facet normal 0 0 0
  outer loop
   vertex 47.7000 -27.7800 32.0000
   vertex 47.7000 -20.2800 32.0000
   vertex 47.7000 -20.2800 36.6000
  endloop
 endfacet
 facet normal 0 0 0
  outer loop
   vertex 47.7000 -27.7800 32.0000
   vertex 47.7000 -20.2800 36.6000
   vertex 47.7000 -27.7800 36.6000
  endloop
 endfacet
 facet normal 0 0 0
  outer loop
   vertex 47.7000 -20.2800 32.0000
   vertex 40.2000 -20.2800 32.0000
   vertex 40.2000 -20.2800 36.6000
  endloop
 endfacet
 facet normal 0 0 0
  outer loop
   vertex 47.7000 -20.2800 32.0000
   vertex 40.2000 -20.2800 36.6000
   vertex 47.7000 -20.2800 36.6000
  endloop
 endfacet
 facet normal 0 0 0
  outer loop
   vertex 40.2000 -20.2800 32.0000
   vertex 40.2000 -27.7800 32.0000
   vertex 40.2000 -27.7800 36.6000
  endloop
 endfacet
 facet normal 0 0 0
  outer loop
   vertex 40.2000 -20.2800 32.0000
   vertex 40.2000 -27.7800 36.6000
   vertex 40.2000 -20.2800 36.6000
  endloop
 endfacet
 facet normal 0 0 0
  outer loop
   vertex 40.2000 20.2800 32.0000
   vertex 47.7000 27.7800 32.0000
   vertex 47.7000 20.2800 32.0000
  endloop
 endfacet
 facet normal 0 0 0
  outer loop
   vertex 40.2000 20.2800 32.0000
   vertex 40.2000 27.7800 32.0000
   vertex 47.7000 27.7800 32.0000
  endloop
 endfacet
 facet normal 0 0 0
  outer loop
   vertex 40.2000 20.2800 36.6000
   vertex 47.7000 20.2800 36.6000
   vertex 47.7000 27.7800 36.6000
  endloop
 endfacet
 facet normal 0 0 0
  outer loop
   vertex 40.2000 20.2800 36.6000
   vertex 47.7000 27.7800 36.6000
   vertex 40.2000 27.7800 36.6000
  endloop
 endfacet
 facet normal 0 0 0
  outer loop
   vertex 40.2000 20.2800 32.0000
   vertex 47.7000 20.2800 32.0000
   vertex 47.7000 20.2800 36.6000
  endloop
 endfacet
 facet normal 0 0 0
  outer loop
   vertex 40.2000 20.2800 32.0000
   vertex 47.7000 20.2800 36.6000
   vertex 40.2000 20.2800 36.6000
  endloop
 endfacet
 facet normal 0 0 0
  outer loop
   vertex 47.7000 20.2800 32.0000
   vertex 47.7000 27.7800 32.0000
   vertex 47.7000 27.7800 36.6000
  endloop
 endfacet
 facet normal 0 0 0
  outer loop
   vertex 47.7000 20.2800 32.0000
   vertex 47.7000 27.7800 36.6000
   vertex 47.7000 20.2800 36.6000
  endloop
 endfacet
 facet normal 0 0 0
  outer loop
   vertex 47.7000 27.7800 32.0000
   vertex 40.2000 27.7800 32.0000
   vertex 40.2000 27.7800 36.6000
  endloop
 endfacet
 facet normal 0 0 0
  outer loop
   vertex 47.7000 27.7800 32.0000
   vertex 40.2000 27.7800 36.6000
   vertex 47.7000 27.7800 36.6000
  endloop
 endfacet
 facet normal 0 0 0
  outer loop
   vertex 40.2000 27.7800 32.0000
   vertex 40.2000 20.2800 32.0000
   vertex 40.2000 20.2800 36.6000
  endloop
 endfacet
 facet normal 0 0 0
  outer loop
   vertex 40.2000 27.7800 32.0000
   vertex 40.2000 20.2800 36.6000
   vertex 40.2000 27.7800 36.6000
  endloop
 endfacet
endsolid battery_case_v1_top
