solid vacuum_battery_fit_check_enclosure
 facet normal 0 0 1
  outer loop
   vertex -61.3675 0 -66.8542
   vertex 61.3675 0 -66.8542
   vertex 61.3675 2.8 -66.8542
  endloop
 endfacet
 facet normal 0 0 1
  outer loop
   vertex -61.3675 0 -66.8542
   vertex 61.3675 2.8 -66.8542
   vertex -61.3675 2.8 -66.8542
  endloop
 endfacet
 facet normal 0 0 -1
  outer loop
   vertex -61.3675 0 66.8542
   vertex 61.3675 2.8 66.8542
   vertex 61.3675 0 66.8542
  endloop
 endfacet
 facet normal 0 0 -1
  outer loop
   vertex -61.3675 0 66.8542
   vertex -61.3675 2.8 66.8542
   vertex 61.3675 2.8 66.8542
  endloop
 endfacet
 facet normal 0 1 0
  outer loop
   vertex -61.3675 0 -66.8542
   vertex -61.3675 0 66.8542
   vertex 61.3675 0 66.8542
  endloop
 endfacet
 facet normal 0 1 0
  outer loop
   vertex -61.3675 0 -66.8542
   vertex 61.3675 0 66.8542
   vertex 61.3675 0 -66.8542
  endloop
 endfacet
 facet normal -1 0 0
  outer loop
   vertex 61.3675 0 -66.8542
   vertex 61.3675 0 66.8542
   vertex 61.3675 2.8 66.8542
  endloop
 endfacet
 facet normal -1 0 0
  outer loop
   vertex 61.3675 0 -66.8542
   vertex 61.3675 2.8 66.8542
   vertex 61.3675 2.8 -66.8542
  endloop
 endfacet
 facet normal 0 -1 0
  outer loop
   vertex 61.3675 2.8 -66.8542
   vertex 61.3675 2.8 66.8542
   vertex -61.3675 2.8 66.8542
  endloop
 endfacet
 facet normal 0 -1 0
  outer loop
   vertex 61.3675 2.8 -66.8542
   vertex -61.3675 2.8 66.8542
   vertex -61.3675 2.8 -66.8542
  endloop
 endfacet
 facet normal 1 0 -0
  outer loop
   vertex -61.3675 2.8 -66.8542
   vertex -61.3675 2.8 66.8542
   vertex -61.3675 0 66.8542
  endloop
 endfacet
 facet normal 1 0 0
  outer loop
   vertex -61.3675 2.8 -66.8542
   vertex -61.3675 0 66.8542
   vertex -61.3675 0 -66.8542
  endloop
 endfacet
 facet normal 0 0 1
  outer loop
   vertex -61.3675 -16 -66.8542
   vertex 61.3675 -16 -66.8542
   vertex 61.3675 10.7 -66.8542
  endloop
 endfacet
 facet normal 0 0 1
  outer loop
   vertex -61.3675 -16 -66.8542
   vertex 61.3675 10.7 -66.8542
   vertex -61.3675 10.7 -66.8542
  endloop
 endfacet
 facet normal 0 0 -1
  outer loop
   vertex -61.3675 -16 -64.4542
   vertex 61.3675 10.7 -64.4542
   vertex 61.3675 -16 -64.4542
  endloop
 endfacet
 facet normal 0 0 -1
  outer loop
   vertex -61.3675 -16 -64.4542
   vertex -61.3675 10.7 -64.4542
   vertex 61.3675 10.7 -64.4542
  endloop
 endfacet
 facet normal 0 1 0
  outer loop
   vertex -61.3675 -16 -66.8542
   vertex -61.3675 -16 -64.4542
   vertex 61.3675 -16 -64.4542
  endloop
 endfacet
 facet normal 0 1 0
  outer loop
   vertex -61.3675 -16 -66.8542
   vertex 61.3675 -16 -64.4542
   vertex 61.3675 -16 -66.8542
  endloop
 endfacet
 facet normal -1 0 0
  outer loop
   vertex 61.3675 -16 -66.8542
   vertex 61.3675 -16 -64.4542
   vertex 61.3675 10.7 -64.4542
  endloop
 endfacet
 facet normal -1 0 0
  outer loop
   vertex 61.3675 -16 -66.8542
   vertex 61.3675 10.7 -64.4542
   vertex 61.3675 10.7 -66.8542
  endloop
 endfacet
 facet normal 0 -1 0
  outer loop
   vertex 61.3675 10.7 -66.8542
   vertex 61.3675 10.7 -64.4542
   vertex -61.3675 10.7 -64.4542
  endloop
 endfacet
 facet normal 0 -1 0
  outer loop
   vertex 61.3675 10.7 -66.8542
   vertex -61.3675 10.7 -64.4542
   vertex -61.3675 10.7 -66.8542
  endloop
 endfacet
 facet normal 1 0 -0
  outer loop
   vertex -61.3675 10.7 -66.8542
   vertex -61.3675 10.7 -64.4542
   vertex -61.3675 -16 -64.4542
  endloop
 endfacet
 facet normal 1 0 0
  outer loop
   vertex -61.3675 10.7 -66.8542
   vertex -61.3675 -16 -64.4542
   vertex -61.3675 -16 -66.8542
  endloop
 endfacet
 facet normal 0 0 1
  outer loop
   vertex -61.3675 2.8 64.4542
   vertex 61.3675 2.8 64.4542
   vertex 61.3675 34.8 64.4542
  endloop
 endfacet
 facet normal 0 0 1
  outer loop
   vertex -61.3675 2.8 64.4542
   vertex 61.3675 34.8 64.4542
   vertex -61.3675 34.8 64.4542
  endloop
 endfacet
 facet normal 0 0 -1
  outer loop
   vertex -61.3675 2.8 66.8542
   vertex 61.3675 34.8 66.8542
   vertex 61.3675 2.8 66.8542
  endloop
 endfacet
 facet normal 0 0 -1
  outer loop
   vertex -61.3675 2.8 66.8542
   vertex -61.3675 34.8 66.8542
   vertex 61.3675 34.8 66.8542
  endloop
 endfacet
 facet normal 0 1 0
  outer loop
   vertex -61.3675 2.8 64.4542
   vertex -61.3675 2.8 66.8542
   vertex 61.3675 2.8 66.8542
  endloop
 endfacet
 facet normal 0 1 0
  outer loop
   vertex -61.3675 2.8 64.4542
   vertex 61.3675 2.8 66.8542
   vertex 61.3675 2.8 64.4542
  endloop
 endfacet
 facet normal -1 0 0
  outer loop
   vertex 61.3675 2.8 64.4542
   vertex 61.3675 2.8 66.8542
   vertex 61.3675 34.8 66.8542
  endloop
 endfacet
 facet normal -1 0 0
  outer loop
   vertex 61.3675 2.8 64.4542
   vertex 61.3675 34.8 66.8542
   vertex 61.3675 34.8 64.4542
  endloop
 endfacet
 facet normal 0 -1 0
  outer loop
   vertex 61.3675 34.8 64.4542
   vertex 61.3675 34.8 66.8542
   vertex -61.3675 34.8 66.8542
  endloop
 endfacet
 facet normal 0 -1 0
  outer loop
   vertex 61.3675 34.8 64.4542
   vertex -61.3675 34.8 66.8542
   vertex -61.3675 34.8 64.4542
  endloop
 endfacet
 facet normal 1 0 -0
  outer loop
   vertex -61.3675 34.8 64.4542
   vertex -61.3675 34.8 66.8542
   vertex -61.3675 2.8 66.8542
  endloop
 endfacet
 facet normal 1 0 0
  outer loop
   vertex -61.3675 34.8 64.4542
   vertex -61.3675 2.8 66.8542
   vertex -61.3675 2.8 64.4542
  endloop
 endfacet
 facet normal 0 0 1
  outer loop
   vertex -61.3675 -16 -66.8542
   vertex -58.9675 -16 -66.8542
   vertex -58.9675 16 -66.8542
  endloop
 endfacet
 facet normal 0 0 1
  outer loop
   vertex -61.3675 -16 -66.8542
   vertex -58.9675 16 -66.8542
   vertex -61.3675 16 -66.8542
  endloop
 endfacet
 facet normal 0 0 -1
  outer loop
   vertex -61.3675 -16 66.8542
   vertex -58.9675 16 66.8542
   vertex -58.9675 -16 66.8542
  endloop
 endfacet
 facet normal 0 0 -1
  outer loop
   vertex -61.3675 -16 66.8542
   vertex -61.3675 16 66.8542
   vertex -58.9675 16 66.8542
  endloop
 endfacet
 facet normal 0 1 0
  outer loop
   vertex -61.3675 -16 -66.8542
   vertex -61.3675 -16 66.8542
   vertex -58.9675 -16 66.8542
  endloop
 endfacet
 facet normal 0 1 0
  outer loop
   vertex -61.3675 -16 -66.8542
   vertex -58.9675 -16 66.8542
   vertex -58.9675 -16 -66.8542
  endloop
 endfacet
 facet normal -1 0 0
  outer loop
   vertex -58.9675 -16 -66.8542
   vertex -58.9675 -16 66.8542
   vertex -58.9675 16 66.8542
  endloop
 endfacet
 facet normal -1 0 0
  outer loop
   vertex -58.9675 -16 -66.8542
   vertex -58.9675 16 66.8542
   vertex -58.9675 16 -66.8542
  endloop
 endfacet
 facet normal 0 -1 0
  outer loop
   vertex -58.9675 16 -66.8542
   vertex -58.9675 16 66.8542
   vertex -61.3675 16 66.8542
  endloop
 endfacet
 facet normal 0 -1 0
  outer loop
   vertex -58.9675 16 -66.8542
   vertex -61.3675 16 66.8542
   vertex -61.3675 16 -66.8542
  endloop
 endfacet
 facet normal 1 0 -0
  outer loop
   vertex -61.3675 16 -66.8542
   vertex -61.3675 16 66.8542
   vertex -61.3675 -16 66.8542
  endloop
 endfacet
 facet normal 1 0 0
  outer loop
   vertex -61.3675 16 -66.8542
   vertex -61.3675 -16 66.8542
   vertex -61.3675 -16 -66.8542
  endloop
 endfacet
 facet normal 0 0 1
  outer loop
   vertex 58.9675 -16 -66.8542
   vertex 61.3675 -16 -66.8542
   vertex 61.3675 16 -66.8542
  endloop
 endfacet
 facet normal 0 0 1
  outer loop
   vertex 58.9675 -16 -66.8542
   vertex 61.3675 16 -66.8542
   vertex 58.9675 16 -66.8542
  endloop
 endfacet
 facet normal 0 0 -1
  outer loop
   vertex 58.9675 -16 66.8542
   vertex 61.3675 16 66.8542
   vertex 61.3675 -16 66.8542
  endloop
 endfacet
 facet normal 0 0 -1
  outer loop
   vertex 58.9675 -16 66.8542
   vertex 58.9675 16 66.8542
   vertex 61.3675 16 66.8542
  endloop
 endfacet
 facet normal 0 1 0
  outer loop
   vertex 58.9675 -16 -66.8542
   vertex 58.9675 -16 66.8542
   vertex 61.3675 -16 66.8542
  endloop
 endfacet
 facet normal 0 1 0
  outer loop
   vertex 58.9675 -16 -66.8542
   vertex 61.3675 -16 66.8542
   vertex 61.3675 -16 -66.8542
  endloop
 endfacet
 facet normal -1 0 0
  outer loop
   vertex 61.3675 -16 -66.8542
   vertex 61.3675 -16 66.8542
   vertex 61.3675 16 66.8542
  endloop
 endfacet
 facet normal -1 0 0
  outer loop
   vertex 61.3675 -16 -66.8542
   vertex 61.3675 16 66.8542
   vertex 61.3675 16 -66.8542
  endloop
 endfacet
 facet normal 0 -1 0
  outer loop
   vertex 61.3675 16 -66.8542
   vertex 61.3675 16 66.8542
   vertex 58.9675 16 66.8542
  endloop
 endfacet
 facet normal 0 -1 0
  outer loop
   vertex 61.3675 16 -66.8542
   vertex 58.9675 16 66.8542
   vertex 58.9675 16 -66.8542
  endloop
 endfacet
 facet normal 1 0 -0
  outer loop
   vertex 58.9675 16 -66.8542
   vertex 58.9675 16 66.8542
   vertex 58.9675 -16 66.8542
  endloop
 endfacet
 facet normal 1 0 0
  outer loop
   vertex 58.9675 16 -66.8542
   vertex 58.9675 -16 66.8542
   vertex 58.9675 -16 -66.8542
  endloop
 endfacet
 facet normal 0 0 1
  outer loop
   vertex -58.9675 34.8 -65.0542
   vertex 58.9675 34.8 -65.0542
   vertex 58.9675 37.8 -65.0542
  endloop
 endfacet
 facet normal 0 0 1
  outer loop
   vertex -58.9675 34.8 -65.0542
   vertex 58.9675 37.8 -65.0542
   vertex -58.9675 37.8 -65.0542
  endloop
 endfacet
 facet normal 0 0 -1
  outer loop
   vertex -58.9675 34.8 -63.8542
   vertex 58.9675 37.8 -63.8542
   vertex 58.9675 34.8 -63.8542
  endloop
 endfacet
 facet normal 0 0 -1
  outer loop
   vertex -58.9675 34.8 -63.8542
   vertex -58.9675 37.8 -63.8542
   vertex 58.9675 37.8 -63.8542
  endloop
 endfacet
 facet normal 0 1 0
  outer loop
   vertex -58.9675 34.8 -65.0542
   vertex -58.9675 34.8 -63.8542
   vertex 58.9675 34.8 -63.8542
  endloop
 endfacet
 facet normal 0 1 0
  outer loop
   vertex -58.9675 34.8 -65.0542
   vertex 58.9675 34.8 -63.8542
   vertex 58.9675 34.8 -65.0542
  endloop
 endfacet
 facet normal -1 0 0
  outer loop
   vertex 58.9675 34.8 -65.0542
   vertex 58.9675 34.8 -63.8542
   vertex 58.9675 37.8 -63.8542
  endloop
 endfacet
 facet normal -1 0 0
  outer loop
   vertex 58.9675 34.8 -65.0542
   vertex 58.9675 37.8 -63.8542
   vertex 58.9675 37.8 -65.0542
  endloop
 endfacet
 facet normal 0 -1 0
  outer loop
   vertex 58.9675 37.8 -65.0542
   vertex 58.9675 37.8 -63.8542
   vertex -58.9675 37.8 -63.8542
  endloop
 endfacet
 facet normal 0 -1 0
  outer loop
   vertex 58.9675 37.8 -65.0542
   vertex -58.9675 37.8 -63.8542
   vertex -58.9675 37.8 -65.0542
  endloop
 endfacet
 facet normal 1 0 -0
  outer loop
   vertex -58.9675 37.8 -65.0542
   vertex -58.9675 37.8 -63.8542
   vertex -58.9675 34.8 -63.8542
  endloop
 endfacet
 facet normal 1 0 0
  outer loop
   vertex -58.9675 37.8 -65.0542
   vertex -58.9675 34.8 -63.8542
   vertex -58.9675 34.8 -65.0542
  endloop
 endfacet
 facet normal 0 0 1
  outer loop
   vertex -58.9675 34.8 63.8542
   vertex 58.9675 34.8 63.8542
   vertex 58.9675 37.8 63.8542
  endloop
 endfacet
 facet normal 0 0 1
  outer loop
   vertex -58.9675 34.8 63.8542
   vertex 58.9675 37.8 63.8542
   vertex -58.9675 37.8 63.8542
  endloop
 endfacet
 facet normal 0 0 -1
  outer loop
   vertex -58.9675 34.8 65.0542
   vertex 58.9675 37.8 65.0542
   vertex 58.9675 34.8 65.0542
  endloop
 endfacet
 facet normal 0 0 -1
  outer loop
   vertex -58.9675 34.8 65.0542
   vertex -58.9675 37.8 65.0542
   vertex 58.9675 37.8 65.0542
  endloop
 endfacet
 facet normal 0 1 0
  outer loop
   vertex -58.9675 34.8 63.8542
   vertex -58.9675 34.8 65.0542
   vertex 58.9675 34.8 65.0542
  endloop
 endfacet
 facet normal 0 1 0
  outer loop
   vertex -58.9675 34.8 63.8542
   vertex 58.9675 34.8 65.0542
   vertex 58.9675 34.8 63.8542
  endloop
 endfacet
 facet normal -1 0 0
  outer loop
   vertex 58.9675 34.8 63.8542
   vertex 58.9675 34.8 65.0542
   vertex 58.9675 37.8 65.0542
  endloop
 endfacet
 facet normal -1 0 0
  outer loop
   vertex 58.9675 34.8 63.8542
   vertex 58.9675 37.8 65.0542
   vertex 58.9675 37.8 63.8542
  endloop
 endfacet
 facet normal 0 -1 0
  outer loop
   vertex 58.9675 37.8 63.8542
   vertex 58.9675 37.8 65.0542
   vertex -58.9675 37.8 65.0542
  endloop
 endfacet
 facet normal 0 -1 0
  outer loop
   vertex 58.9675 37.8 63.8542
   vertex -58.9675 37.8 65.0542
   vertex -58.9675 37.8 63.8542
  endloop
 endfacet
 facet normal 1 0 -0
  outer loop
   vertex -58.9675 37.8 63.8542
   vertex -58.9675 37.8 65.0542
   vertex -58.9675 34.8 65.0542
  endloop
 endfacet
 facet normal 1 0 0
  outer loop
   vertex -58.9675 37.8 63.8542
   vertex -58.9675 34.8 65.0542
   vertex -58.9675 34.8 63.8542
  endloop
 endfacet
 facet normal 0 0 1
  outer loop
   vertex -59.5675 34.8 -64.4542
   vertex -58.3675 34.8 -64.4542
   vertex -58.3675 37.8 -64.4542
  endloop
 endfacet
 facet normal 0 0 1
  outer loop
   vertex -59.5675 34.8 -64.4542
   vertex -58.3675 37.8 -64.4542
   vertex -59.5675 37.8 -64.4542
  endloop
 endfacet
 facet normal 0 0 -1
  outer loop
   vertex -59.5675 34.8 64.4542
   vertex -58.3675 37.8 64.4542
   vertex -58.3675 34.8 64.4542
  endloop
 endfacet
 facet normal 0 0 -1
  outer loop
   vertex -59.5675 34.8 64.4542
   vertex -59.5675 37.8 64.4542
   vertex -58.3675 37.8 64.4542
  endloop
 endfacet
 facet normal 0 1 0
  outer loop
   vertex -59.5675 34.8 -64.4542
   vertex -59.5675 34.8 64.4542
   vertex -58.3675 34.8 64.4542
  endloop
 endfacet
 facet normal 0 1 0
  outer loop
   vertex -59.5675 34.8 -64.4542
   vertex -58.3675 34.8 64.4542
   vertex -58.3675 34.8 -64.4542
  endloop
 endfacet
 facet normal -1 0 0
  outer loop
   vertex -58.3675 34.8 -64.4542
   vertex -58.3675 34.8 64.4542
   vertex -58.3675 37.8 64.4542
  endloop
 endfacet
 facet normal -1 0 0
  outer loop
   vertex -58.3675 34.8 -64.4542
   vertex -58.3675 37.8 64.4542
   vertex -58.3675 37.8 -64.4542
  endloop
 endfacet
 facet normal 0 -1 0
  outer loop
   vertex -58.3675 37.8 -64.4542
   vertex -58.3675 37.8 64.4542
   vertex -59.5675 37.8 64.4542
  endloop
 endfacet
 facet normal 0 -1 0
  outer loop
   vertex -58.3675 37.8 -64.4542
   vertex -59.5675 37.8 64.4542
   vertex -59.5675 37.8 -64.4542
  endloop
 endfacet
 facet normal 1 0 -0
  outer loop
   vertex -59.5675 37.8 -64.4542
   vertex -59.5675 37.8 64.4542
   vertex -59.5675 34.8 64.4542
  endloop
 endfacet
 facet normal 1 0 0
  outer loop
   vertex -59.5675 37.8 -64.4542
   vertex -59.5675 34.8 64.4542
   vertex -59.5675 34.8 -64.4542
  endloop
 endfacet
 facet normal 0 0 1
  outer loop
   vertex 58.3675 34.8 -64.4542
   vertex 59.5675 34.8 -64.4542
   vertex 59.5675 37.8 -64.4542
  endloop
 endfacet
 facet normal 0 0 1
  outer loop
   vertex 58.3675 34.8 -64.4542
   vertex 59.5675 37.8 -64.4542
   vertex 58.3675 37.8 -64.4542
  endloop
 endfacet
 facet normal 0 0 -1
  outer loop
   vertex 58.3675 34.8 64.4542
   vertex 59.5675 37.8 64.4542
   vertex 59.5675 34.8 64.4542
  endloop
 endfacet
 facet normal 0 0 -1
  outer loop
   vertex 58.3675 34.8 64.4542
   vertex 58.3675 37.8 64.4542
   vertex 59.5675 37.8 64.4542
  endloop
 endfacet
 facet normal 0 1 0
  outer loop
   vertex 58.3675 34.8 -64.4542
   vertex 58.3675 34.8 64.4542
   vertex 59.5675 34.8 64.4542
  endloop
 endfacet
 facet normal 0 1 0
  outer loop
   vertex 58.3675 34.8 -64.4542
   vertex 59.5675 34.8 64.4542
   vertex 59.5675 34.8 -64.4542
  endloop
 endfacet
 facet normal -1 0 0
  outer loop
   vertex 59.5675 34.8 -64.4542
   vertex 59.5675 34.8 64.4542
   vertex 59.5675 37.8 64.4542
  endloop
 endfacet
 facet normal -1 0 0
  outer loop
   vertex 59.5675 34.8 -64.4542
   vertex 59.5675 37.8 64.4542
   vertex 59.5675 37.8 -64.4542
  endloop
 endfacet
 facet normal 0 -1 0
  outer loop
   vertex 59.5675 37.8 -64.4542
   vertex 59.5675 37.8 64.4542
   vertex 58.3675 37.8 64.4542
  endloop
 endfacet
 facet normal 0 -1 0
  outer loop
   vertex 59.5675 37.8 -64.4542
   vertex 58.3675 37.8 64.4542
   vertex 58.3675 37.8 -64.4542
  endloop
 endfacet
 facet normal 1 0 -0
  outer loop
   vertex 58.3675 37.8 -64.4542
   vertex 58.3675 37.8 64.4542
   vertex 58.3675 34.8 64.4542
  endloop
 endfacet
 facet normal 1 0 0
  outer loop
   vertex 58.3675 37.8 -64.4542
   vertex 58.3675 34.8 64.4542
   vertex 58.3675 34.8 -64.4542
  endloop
 endfacet
 facet normal 0 0 1
  outer loop
   vertex -58.9675 2.8 -64.4542
   vertex -52.9675 2.8 -64.4542
   vertex -52.9675 34.8 -64.4542
  endloop
 endfacet
 facet normal 0 0 1
  outer loop
   vertex -58.9675 2.8 -64.4542
   vertex -52.9675 34.8 -64.4542
   vertex -58.9675 34.8 -64.4542
  endloop
 endfacet
 facet normal 0 0 -1
  outer loop
   vertex -58.9675 2.8 -58.4542
   vertex -52.9675 34.8 -58.4542
   vertex -52.9675 2.8 -58.4542
  endloop
 endfacet
 facet normal 0 0 -1
  outer loop
   vertex -58.9675 2.8 -58.4542
   vertex -58.9675 34.8 -58.4542
   vertex -52.9675 34.8 -58.4542
  endloop
 endfacet
 facet normal 0 1 0
  outer loop
   vertex -58.9675 2.8 -64.4542
   vertex -58.9675 2.8 -58.4542
   vertex -52.9675 2.8 -58.4542
  endloop
 endfacet
 facet normal 0 1 0
  outer loop
   vertex -58.9675 2.8 -64.4542
   vertex -52.9675 2.8 -58.4542
   vertex -52.9675 2.8 -64.4542
  endloop
 endfacet
 facet normal -1 0 0
  outer loop
   vertex -52.9675 2.8 -64.4542
   vertex -52.9675 2.8 -58.4542
   vertex -52.9675 34.8 -58.4542
  endloop
 endfacet
 facet normal -1 0 0
  outer loop
   vertex -52.9675 2.8 -64.4542
   vertex -52.9675 34.8 -58.4542
   vertex -52.9675 34.8 -64.4542
  endloop
 endfacet
 facet normal 0 -1 0
  outer loop
   vertex -52.9675 34.8 -64.4542
   vertex -52.9675 34.8 -58.4542
   vertex -58.9675 34.8 -58.4542
  endloop
 endfacet
 facet normal 0 -1 0
  outer loop
   vertex -52.9675 34.8 -64.4542
   vertex -58.9675 34.8 -58.4542
   vertex -58.9675 34.8 -64.4542
  endloop
 endfacet
 facet normal 1 0 -0
  outer loop
   vertex -58.9675 34.8 -64.4542
   vertex -58.9675 34.8 -58.4542
   vertex -58.9675 2.8 -58.4542
  endloop
 endfacet
 facet normal 1 0 0
  outer loop
   vertex -58.9675 34.8 -64.4542
   vertex -58.9675 2.8 -58.4542
   vertex -58.9675 2.8 -64.4542
  endloop
 endfacet
 facet normal 0 0 1
  outer loop
   vertex -58.9675 2.8 58.4542
   vertex -52.9675 2.8 58.4542
   vertex -52.9675 34.8 58.4542
  endloop
 endfacet
 facet normal 0 0 1
  outer loop
   vertex -58.9675 2.8 58.4542
   vertex -52.9675 34.8 58.4542
   vertex -58.9675 34.8 58.4542
  endloop
 endfacet
 facet normal 0 0 -1
  outer loop
   vertex -58.9675 2.8 64.4542
   vertex -52.9675 34.8 64.4542
   vertex -52.9675 2.8 64.4542
  endloop
 endfacet
 facet normal 0 0 -1
  outer loop
   vertex -58.9675 2.8 64.4542
   vertex -58.9675 34.8 64.4542
   vertex -52.9675 34.8 64.4542
  endloop
 endfacet
 facet normal 0 1 0
  outer loop
   vertex -58.9675 2.8 58.4542
   vertex -58.9675 2.8 64.4542
   vertex -52.9675 2.8 64.4542
  endloop
 endfacet
 facet normal 0 1 0
  outer loop
   vertex -58.9675 2.8 58.4542
   vertex -52.9675 2.8 64.4542
   vertex -52.9675 2.8 58.4542
  endloop
 endfacet
 facet normal -1 0 0
  outer loop
   vertex -52.9675 2.8 58.4542
   vertex -52.9675 2.8 64.4542
   vertex -52.9675 34.8 64.4542
  endloop
 endfacet
 facet normal -1 0 0
  outer loop
   vertex -52.9675 2.8 58.4542
   vertex -52.9675 34.8 64.4542
   vertex -52.9675 34.8 58.4542
  endloop
 endfacet
 facet normal 0 -1 0
  outer loop
   vertex -52.9675 34.8 58.4542
   vertex -52.9675 34.8 64.4542
   vertex -58.9675 34.8 64.4542
  endloop
 endfacet
 facet normal 0 -1 0
  outer loop
   vertex -52.9675 34.8 58.4542
   vertex -58.9675 34.8 64.4542
   vertex -58.9675 34.8 58.4542
  endloop
 endfacet
 facet normal 1 0 -0
  outer loop
   vertex -58.9675 34.8 58.4542
   vertex -58.9675 34.8 64.4542
   vertex -58.9675 2.8 64.4542
  endloop
 endfacet
 facet normal 1 0 0
  outer loop
   vertex -58.9675 34.8 58.4542
   vertex -58.9675 2.8 64.4542
   vertex -58.9675 2.8 58.4542
  endloop
 endfacet
 facet normal 0 0 1
  outer loop
   vertex 52.9675 2.8 -64.4542
   vertex 58.9675 2.8 -64.4542
   vertex 58.9675 34.8 -64.4542
  endloop
 endfacet
 facet normal 0 0 1
  outer loop
   vertex 52.9675 2.8 -64.4542
   vertex 58.9675 34.8 -64.4542
   vertex 52.9675 34.8 -64.4542
  endloop
 endfacet
 facet normal 0 0 -1
  outer loop
   vertex 52.9675 2.8 -58.4542
   vertex 58.9675 34.8 -58.4542
   vertex 58.9675 2.8 -58.4542
  endloop
 endfacet
 facet normal 0 0 -1
  outer loop
   vertex 52.9675 2.8 -58.4542
   vertex 52.9675 34.8 -58.4542
   vertex 58.9675 34.8 -58.4542
  endloop
 endfacet
 facet normal 0 1 0
  outer loop
   vertex 52.9675 2.8 -64.4542
   vertex 52.9675 2.8 -58.4542
   vertex 58.9675 2.8 -58.4542
  endloop
 endfacet
 facet normal 0 1 0
  outer loop
   vertex 52.9675 2.8 -64.4542
   vertex 58.9675 2.8 -58.4542
   vertex 58.9675 2.8 -64.4542
  endloop
 endfacet
 facet normal -1 0 0
  outer loop
   vertex 58.9675 2.8 -64.4542
   vertex 58.9675 2.8 -58.4542
   vertex 58.9675 34.8 -58.4542
  endloop
 endfacet
 facet normal -1 0 0
  outer loop
   vertex 58.9675 2.8 -64.4542
   vertex 58.9675 34.8 -58.4542
   vertex 58.9675 34.8 -64.4542
  endloop
 endfacet
 facet normal 0 -1 0
  outer loop
   vertex 58.9675 34.8 -64.4542
   vertex 58.9675 34.8 -58.4542
   vertex 52.9675 34.8 -58.4542
  endloop
 endfacet
 facet normal 0 -1 0
  outer loop
   vertex 58.9675 34.8 -64.4542
   vertex 52.9675 34.8 -58.4542
   vertex 52.9675 34.8 -64.4542
  endloop
 endfacet
 facet normal 1 0 -0
  outer loop
   vertex 52.9675 34.8 -64.4542
   vertex 52.9675 34.8 -58.4542
   vertex 52.9675 2.8 -58.4542
  endloop
 endfacet
 facet normal 1 0 0
  outer loop
   vertex 52.9675 34.8 -64.4542
   vertex 52.9675 2.8 -58.4542
   vertex 52.9675 2.8 -64.4542
  endloop
 endfacet
 facet normal 0 0 1
  outer loop
   vertex 52.9675 2.8 58.4542
   vertex 58.9675 2.8 58.4542
   vertex 58.9675 34.8 58.4542
  endloop
 endfacet
 facet normal 0 0 1
  outer loop
   vertex 52.9675 2.8 58.4542
   vertex 58.9675 34.8 58.4542
   vertex 52.9675 34.8 58.4542
  endloop
 endfacet
 facet normal 0 0 -1
  outer loop
   vertex 52.9675 2.8 64.4542
   vertex 58.9675 34.8 64.4542
   vertex 58.9675 2.8 64.4542
  endloop
 endfacet
 facet normal 0 0 -1
  outer loop
   vertex 52.9675 2.8 64.4542
   vertex 52.9675 34.8 64.4542
   vertex 58.9675 34.8 64.4542
  endloop
 endfacet
 facet normal 0 1 0
  outer loop
   vertex 52.9675 2.8 58.4542
   vertex 52.9675 2.8 64.4542
   vertex 58.9675 2.8 64.4542
  endloop
 endfacet
 facet normal 0 1 0
  outer loop
   vertex 52.9675 2.8 58.4542
   vertex 58.9675 2.8 64.4542
   vertex 58.9675 2.8 58.4542
  endloop
 endfacet
 facet normal -1 0 0
  outer loop
   vertex 58.9675 2.8 58.4542
   vertex 58.9675 2.8 64.4542
   vertex 58.9675 34.8 64.4542
  endloop
 endfacet
 facet normal -1 0 0
  outer loop
   vertex 58.9675 2.8 58.4542
   vertex 58.9675 34.8 64.4542
   vertex 58.9675 34.8 58.4542
  endloop
 endfacet
 facet normal 0 -1 0
  outer loop
   vertex 58.9675 34.8 58.4542
   vertex 58.9675 34.8 64.4542
   vertex 52.9675 34.8 64.4542
  endloop
 endfacet
 facet normal 0 -1 0
  outer loop
   vertex 58.9675 34.8 58.4542
   vertex 52.9675 34.8 64.4542
   vertex 52.9675 34.8 58.4542
  endloop
 endfacet
 facet normal 1 0 -0
  outer loop
   vertex 52.9675 34.8 58.4542
   vertex 52.9675 34.8 64.4542
   vertex 52.9675 2.8 64.4542
  endloop
 endfacet
 facet normal 1 0 0
  outer loop
   vertex 52.9675 34.8 58.4542
   vertex 52.9675 2.8 64.4542
   vertex 52.9675 2.8 58.4542
  endloop
 endfacet
 facet normal 0 0 1
  outer loop
   vertex -30.1 34.8 -60.0542
   vertex -26.9 34.8 -60.0542
   vertex -26.9 36 -60.0542
  endloop
 endfacet
 facet normal 0 0 1
  outer loop
   vertex -30.1 34.8 -60.0542
   vertex -26.9 36 -60.0542
   vertex -30.1 36 -60.0542
  endloop
 endfacet
 facet normal 0 0 -1
  outer loop
   vertex -30.1 34.8 -56.8542
   vertex -26.9 36 -56.8542
   vertex -26.9 34.8 -56.8542
  endloop
 endfacet
 facet normal 0 0 -1
  outer loop
   vertex -30.1 34.8 -56.8542
   vertex -30.1 36 -56.8542
   vertex -26.9 36 -56.8542
  endloop
 endfacet
 facet normal 0 1 0
  outer loop
   vertex -30.1 34.8 -60.0542
   vertex -30.1 34.8 -56.8542
   vertex -26.9 34.8 -56.8542
  endloop
 endfacet
 facet normal 0 1 0
  outer loop
   vertex -30.1 34.8 -60.0542
   vertex -26.9 34.8 -56.8542
   vertex -26.9 34.8 -60.0542
  endloop
 endfacet
 facet normal -1 0 0
  outer loop
   vertex -26.9 34.8 -60.0542
   vertex -26.9 34.8 -56.8542
   vertex -26.9 36 -56.8542
  endloop
 endfacet
 facet normal -1 0 0
  outer loop
   vertex -26.9 34.8 -60.0542
   vertex -26.9 36 -56.8542
   vertex -26.9 36 -60.0542
  endloop
 endfacet
 facet normal 0 -1 0
  outer loop
   vertex -26.9 36 -60.0542
   vertex -26.9 36 -56.8542
   vertex -30.1 36 -56.8542
  endloop
 endfacet
 facet normal 0 -1 0
  outer loop
   vertex -26.9 36 -60.0542
   vertex -30.1 36 -56.8542
   vertex -30.1 36 -60.0542
  endloop
 endfacet
 facet normal 1 0 -0
  outer loop
   vertex -30.1 36 -60.0542
   vertex -30.1 36 -56.8542
   vertex -30.1 34.8 -56.8542
  endloop
 endfacet
 facet normal 1 0 0
  outer loop
   vertex -30.1 36 -60.0542
   vertex -30.1 34.8 -56.8542
   vertex -30.1 34.8 -60.0542
  endloop
 endfacet
 facet normal 0 0 1
  outer loop
   vertex -23.1 34.8 -60.0542
   vertex -19.9 34.8 -60.0542
   vertex -19.9 36 -60.0542
  endloop
 endfacet
 facet normal 0 0 1
  outer loop
   vertex -23.1 34.8 -60.0542
   vertex -19.9 36 -60.0542
   vertex -23.1 36 -60.0542
  endloop
 endfacet
 facet normal 0 0 -1
  outer loop
   vertex -23.1 34.8 -56.8542
   vertex -19.9 36 -56.8542
   vertex -19.9 34.8 -56.8542
  endloop
 endfacet
 facet normal 0 0 -1
  outer loop
   vertex -23.1 34.8 -56.8542
   vertex -23.1 36 -56.8542
   vertex -19.9 36 -56.8542
  endloop
 endfacet
 facet normal 0 1 0
  outer loop
   vertex -23.1 34.8 -60.0542
   vertex -23.1 34.8 -56.8542
   vertex -19.9 34.8 -56.8542
  endloop
 endfacet
 facet normal 0 1 0
  outer loop
   vertex -23.1 34.8 -60.0542
   vertex -19.9 34.8 -56.8542
   vertex -19.9 34.8 -60.0542
  endloop
 endfacet
 facet normal -1 0 0
  outer loop
   vertex -19.9 34.8 -60.0542
   vertex -19.9 34.8 -56.8542
   vertex -19.9 36 -56.8542
  endloop
 endfacet
 facet normal -1 0 0
  outer loop
   vertex -19.9 34.8 -60.0542
   vertex -19.9 36 -56.8542
   vertex -19.9 36 -60.0542
  endloop
 endfacet
 facet normal 0 -1 0
  outer loop
   vertex -19.9 36 -60.0542
   vertex -19.9 36 -56.8542
   vertex -23.1 36 -56.8542
  endloop
 endfacet
 facet normal 0 -1 0
  outer loop
   vertex -19.9 36 -60.0542
   vertex -23.1 36 -56.8542
   vertex -23.1 36 -60.0542
  endloop
 endfacet
 facet normal 1 0 -0
  outer loop
   vertex -23.1 36 -60.0542
   vertex -23.1 36 -56.8542
   vertex -23.1 34.8 -56.8542
  endloop
 endfacet
 facet normal 1 0 0
  outer loop
   vertex -23.1 36 -60.0542
   vertex -23.1 34.8 -56.8542
   vertex -23.1 34.8 -60.0542
  endloop
 endfacet
 facet normal 0 0 1
  outer loop
   vertex -16.1 34.8 -60.0542
   vertex -12.9 34.8 -60.0542
   vertex -12.9 36 -60.0542
  endloop
 endfacet
 facet normal 0 0 1
  outer loop
   vertex -16.1 34.8 -60.0542
   vertex -12.9 36 -60.0542
   vertex -16.1 36 -60.0542
  endloop
 endfacet
 facet normal 0 0 -1
  outer loop
   vertex -16.1 34.8 -56.8542
   vertex -12.9 36 -56.8542
   vertex -12.9 34.8 -56.8542
  endloop
 endfacet
 facet normal 0 0 -1
  outer loop
   vertex -16.1 34.8 -56.8542
   vertex -16.1 36 -56.8542
   vertex -12.9 36 -56.8542
  endloop
 endfacet
 facet normal 0 1 0
  outer loop
   vertex -16.1 34.8 -60.0542
   vertex -16.1 34.8 -56.8542
   vertex -12.9 34.8 -56.8542
  endloop
 endfacet
 facet normal 0 1 0
  outer loop
   vertex -16.1 34.8 -60.0542
   vertex -12.9 34.8 -56.8542
   vertex -12.9 34.8 -60.0542
  endloop
 endfacet
 facet normal -1 0 0
  outer loop
   vertex -12.9 34.8 -60.0542
   vertex -12.9 34.8 -56.8542
   vertex -12.9 36 -56.8542
  endloop
 endfacet
 facet normal -1 0 0
  outer loop
   vertex -12.9 34.8 -60.0542
   vertex -12.9 36 -56.8542
   vertex -12.9 36 -60.0542
  endloop
 endfacet
 facet normal 0 -1 0
  outer loop
   vertex -12.9 36 -60.0542
   vertex -12.9 36 -56.8542
   vertex -16.1 36 -56.8542
  endloop
 endfacet
 facet normal 0 -1 0
  outer loop
   vertex -12.9 36 -60.0542
   vertex -16.1 36 -56.8542
   vertex -16.1 36 -60.0542
  endloop
 endfacet
 facet normal 1 0 -0
  outer loop
   vertex -16.1 36 -60.0542
   vertex -16.1 36 -56.8542
   vertex -16.1 34.8 -56.8542
  endloop
 endfacet
 facet normal 1 0 0
  outer loop
   vertex -16.1 36 -60.0542
   vertex -16.1 34.8 -56.8542
   vertex -16.1 34.8 -60.0542
  endloop
 endfacet
 facet normal 0 0 1
  outer loop
   vertex -9.1 34.8 -60.0542
   vertex -5.9 34.8 -60.0542
   vertex -5.9 36 -60.0542
  endloop
 endfacet
 facet normal 0 0 1
  outer loop
   vertex -9.1 34.8 -60.0542
   vertex -5.9 36 -60.0542
   vertex -9.1 36 -60.0542
  endloop
 endfacet
 facet normal 0 0 -1
  outer loop
   vertex -9.1 34.8 -56.8542
   vertex -5.9 36 -56.8542
   vertex -5.9 34.8 -56.8542
  endloop
 endfacet
 facet normal 0 0 -1
  outer loop
   vertex -9.1 34.8 -56.8542
   vertex -9.1 36 -56.8542
   vertex -5.9 36 -56.8542
  endloop
 endfacet
 facet normal 0 1 0
  outer loop
   vertex -9.1 34.8 -60.0542
   vertex -9.1 34.8 -56.8542
   vertex -5.9 34.8 -56.8542
  endloop
 endfacet
 facet normal 0 1 0
  outer loop
   vertex -9.1 34.8 -60.0542
   vertex -5.9 34.8 -56.8542
   vertex -5.9 34.8 -60.0542
  endloop
 endfacet
 facet normal -1 0 0
  outer loop
   vertex -5.9 34.8 -60.0542
   vertex -5.9 34.8 -56.8542
   vertex -5.9 36 -56.8542
  endloop
 endfacet
 facet normal -1 0 0
  outer loop
   vertex -5.9 34.8 -60.0542
   vertex -5.9 36 -56.8542
   vertex -5.9 36 -60.0542
  endloop
 endfacet
 facet normal 0 -1 0
  outer loop
   vertex -5.9 36 -60.0542
   vertex -5.9 36 -56.8542
   vertex -9.1 36 -56.8542
  endloop
 endfacet
 facet normal 0 -1 0
  outer loop
   vertex -5.9 36 -60.0542
   vertex -9.1 36 -56.8542
   vertex -9.1 36 -60.0542
  endloop
 endfacet
 facet normal 1 0 -0
  outer loop
   vertex -9.1 36 -60.0542
   vertex -9.1 36 -56.8542
   vertex -9.1 34.8 -56.8542
  endloop
 endfacet
 facet normal 1 0 0
  outer loop
   vertex -9.1 36 -60.0542
   vertex -9.1 34.8 -56.8542
   vertex -9.1 34.8 -60.0542
  endloop
 endfacet
endsolid vacuum_battery_fit_check_enclosure
