solid vacuum_battery_fit_check_tray
 facet normal 0 0 1
  outer loop
   vertex -61.3675 -13.4 -2.8
   vertex 61.3675 -13.4 -2.8
   vertex 61.3675 13.4 -2.8
  endloop
 endfacet
 facet normal 0 0 1
  outer loop
   vertex -61.3675 -13.4 -2.8
   vertex 61.3675 13.4 -2.8
   vertex -61.3675 13.4 -2.8
  endloop
 endfacet
 facet normal 0 0 -1
  outer loop
   vertex -61.3675 -13.4 0
   vertex 61.3675 13.4 0
   vertex 61.3675 -13.4 0
  endloop
 endfacet
 facet normal 0 0 -1
  outer loop
   vertex -61.3675 -13.4 0
   vertex -61.3675 13.4 0
   vertex 61.3675 13.4 0
  endloop
 endfacet
 facet normal 0 1 0
  outer loop
   vertex -61.3675 -13.4 -2.8
   vertex -61.3675 -13.4 0
   vertex 61.3675 -13.4 0
  endloop
 endfacet
 facet normal 0 1 0
  outer loop
   vertex -61.3675 -13.4 -2.8
   vertex 61.3675 -13.4 0
   vertex 61.3675 -13.4 -2.8
  endloop
 endfacet
 facet normal -1 0 0
  outer loop
   vertex 61.3675 -13.4 -2.8
   vertex 61.3675 -13.4 0
   vertex 61.3675 13.4 0
  endloop
 endfacet
 facet normal -1 0 0
  outer loop
   vertex 61.3675 -13.4 -2.8
   vertex 61.3675 13.4 0
   vertex 61.3675 13.4 -2.8
  endloop
 endfacet
 facet normal 0 -1 0
  outer loop
   vertex 61.3675 13.4 -2.8
   vertex 61.3675 13.4 0
   vertex -61.3675 13.4 0
  endloop
 endfacet
 facet normal 0 -1 0
  outer loop
   vertex 61.3675 13.4 -2.8
   vertex -61.3675 13.4 0
   vertex -61.3675 13.4 -2.8
  endloop
 endfacet
 facet normal 1 0 -0
  outer loop
   vertex -61.3675 13.4 -2.8
   vertex -61.3675 13.4 0
   vertex -61.3675 -13.4 0
  endloop
 endfacet
 facet normal 1 0 0
  outer loop
   vertex -61.3675 13.4 -2.8
   vertex -61.3675 -13.4 0
   vertex -61.3675 -13.4 -2.8
  endloop
 endfacet
 facet normal 0 0 1
  outer loop
   vertex -61.3675 -13.4 0
   vertex 61.3675 -13.4 0
   vertex 61.3675 -11 0
  endloop
 endfacet
 facet normal 0 0 1
  outer loop
   vertex -61.3675 -13.4 0
   vertex 61.3675 -11 0
   vertex -61.3675 -11 0
  endloop
 endfacet
 facet normal 0 0 -1
  outer loop
   vertex -61.3675 -13.4 7
   vertex 61.3675 -11 7
   vertex 61.3675 -13.4 7
  endloop
 endfacet
 facet normal 0 0 -1
  outer loop
   vertex -61.3675 -13.4 7
   vertex -61.3675 -11 7
   vertex 61.3675 -11 7
  endloop
 endfacet
 facet normal 0 1 0
  outer loop
   vertex -61.3675 -13.4 0
   vertex -61.3675 -13.4 7
   vertex 61.3675 -13.4 7
  endloop
 endfacet
 facet normal 0 1 0
  outer loop
   vertex -61.3675 -13.4 0
   vertex 61.3675 -13.4 7
   vertex 61.3675 -13.4 0
  endloop
 endfacet
 facet normal -1 0 0
  outer loop
   vertex 61.3675 -13.4 0
   vertex 61.3675 -13.4 7
   vertex 61.3675 -11 7
  endloop
 endfacet
 facet normal -1 0 0
  outer loop
   vertex 61.3675 -13.4 0
   vertex 61.3675 -11 7
   vertex 61.3675 -11 0
  endloop
 endfacet
 facet normal 0 -1 0
  outer loop
   vertex 61.3675 -11 0
   vertex 61.3675 -11 7
   vertex -61.3675 -11 7
  endloop
 endfacet
 facet normal 0 -1 0
  outer loop
   vertex 61.3675 -11 0
   vertex -61.3675 -11 7
   vertex -61.3675 -11 0
  endloop
 endfacet
 facet normal 1 0 -0
  outer loop
   vertex -61.3675 -11 0
   vertex -61.3675 -11 7
   vertex -61.3675 -13.4 7
  endloop
 endfacet
 facet normal 1 0 0
  outer loop
   vertex -61.3675 -11 0
   vertex -61.3675 -13.4 7
   vertex -61.3675 -13.4 0
  endloop
 endfacet
 facet normal 0 0 1
  outer loop
   vertex -61.3675 11 0
   vertex 61.3675 11 0
   vertex 61.3675 13.4 0
  endloop
 endfacet
 facet normal 0 0 1
  outer loop
   vertex -61.3675 11 0
   vertex 61.3675 13.4 0
   vertex -61.3675 13.4 0
  endloop
 endfacet
 facet normal 0 0 -1
  outer loop
   vertex -61.3675 11 22
   vertex 61.3675 13.4 22
   vertex 61.3675 11 22
  endloop
 endfacet
 facet normal 0 0 -1
  outer loop
   vertex -61.3675 11 22
   vertex -61.3675 13.4 22
   vertex 61.3675 13.4 22
  endloop
 endfacet
 facet normal 0 1 0
  outer loop
   vertex -61.3675 11 0
   vertex -61.3675 11 22
   vertex 61.3675 11 22
  endloop
 endfacet
 facet normal 0 1 0
  outer loop
   vertex -61.3675 11 0
   vertex 61.3675 11 22
   vertex 61.3675 11 0
  endloop
 endfacet
 facet normal -1 0 0
  outer loop
   vertex 61.3675 11 0
   vertex 61.3675 11 22
   vertex 61.3675 13.4 22
  endloop
 endfacet
 facet normal -1 0 0
  outer loop
   vertex 61.3675 11 0
   vertex 61.3675 13.4 22
   vertex 61.3675 13.4 0
  endloop
 endfacet
 facet normal 0 -1 0
  outer loop
   vertex 61.3675 13.4 0
   vertex 61.3675 13.4 22
   vertex -61.3675 13.4 22
  endloop
 endfacet
 facet normal 0 -1 0
  outer loop
   vertex 61.3675 13.4 0
   vertex -61.3675 13.4 22
   vertex -61.3675 13.4 0
  endloop
 endfacet
 facet normal 1 0 -0
  outer loop
   vertex -61.3675 13.4 0
   vertex -61.3675 13.4 22
   vertex -61.3675 11 22
  endloop
 endfacet
 facet normal 1 0 0
  outer loop
   vertex -61.3675 13.4 0
   vertex -61.3675 11 22
   vertex -61.3675 11 0
  endloop
 endfacet
 facet normal 0 0 1
  outer loop
   vertex -61.3675 -13.4 0
   vertex -58.9675 -13.4 0
   vertex -58.9675 13.4 0
  endloop
 endfacet
 facet normal 0 0 1
  outer loop
   vertex -61.3675 -13.4 0
   vertex -58.9675 13.4 0
   vertex -61.3675 13.4 0
  endloop
 endfacet
 facet normal 0 0 -1
  outer loop
   vertex -61.3675 -13.4 36
   vertex -58.9675 13.4 36
   vertex -58.9675 -13.4 36
  endloop
 endfacet
 facet normal 0 0 -1
  outer loop
   vertex -61.3675 -13.4 36
   vertex -61.3675 13.4 36
   vertex -58.9675 13.4 36
  endloop
 endfacet
 facet normal 0 1 0
  outer loop
   vertex -61.3675 -13.4 0
   vertex -61.3675 -13.4 36
   vertex -58.9675 -13.4 36
  endloop
 endfacet
 facet normal 0 1 0
  outer loop
   vertex -61.3675 -13.4 0
   vertex -58.9675 -13.4 36
   vertex -58.9675 -13.4 0
  endloop
 endfacet
 facet normal -1 0 0
  outer loop
   vertex -58.9675 -13.4 0
   vertex -58.9675 -13.4 36
   vertex -58.9675 13.4 36
  endloop
 endfacet
 facet normal -1 0 0
  outer loop
   vertex -58.9675 -13.4 0
   vertex -58.9675 13.4 36
   vertex -58.9675 13.4 0
  endloop
 endfacet
 facet normal 0 -1 0
  outer loop
   vertex -58.9675 13.4 0
   vertex -58.9675 13.4 36
   vertex -61.3675 13.4 36
  endloop
 endfacet
 facet normal 0 -1 0
  outer loop
   vertex -58.9675 13.4 0
   vertex -61.3675 13.4 36
   vertex -61.3675 13.4 0
  endloop
 endfacet
 facet normal 1 0 -0
  outer loop
   vertex -61.3675 13.4 0
   vertex -61.3675 13.4 36
   vertex -61.3675 -13.4 36
  endloop
 endfacet
 facet normal 1 0 0
  outer loop
   vertex -61.3675 13.4 0
   vertex -61.3675 -13.4 36
   vertex -61.3675 -13.4 0
  endloop
 endfacet
 facet normal 0 0 1
  outer loop
   vertex 58.9675 -13.4 0
   vertex 61.3675 -13.4 0
   vertex 61.3675 13.4 0
  endloop
 endfacet
 facet normal 0 0 1
  outer loop
   vertex 58.9675 -13.4 0
   vertex 61.3675 13.4 0
   vertex 58.9675 13.4 0
  endloop
 endfacet
 facet normal 0 0 -1
  outer loop
   vertex 58.9675 -13.4 36
   vertex 61.3675 13.4 36
   vertex 61.3675 -13.4 36
  endloop
 endfacet
 facet normal 0 0 -1
  outer loop
   vertex 58.9675 -13.4 36
   vertex 58.9675 13.4 36
   vertex 61.3675 13.4 36
  endloop
 endfacet
 facet normal 0 1 0
  outer loop
   vertex 58.9675 -13.4 0
   vertex 58.9675 -13.4 36
   vertex 61.3675 -13.4 36
  endloop
 endfacet
 facet normal 0 1 0
  outer loop
   vertex 58.9675 -13.4 0
   vertex 61.3675 -13.4 36
   vertex 61.3675 -13.4 0
  endloop
 endfacet
 facet normal -1 0 0
  outer loop
   vertex 61.3675 -13.4 0
   vertex 61.3675 -13.4 36
   vertex 61.3675 13.4 36
  endloop
 endfacet
 facet normal -1 0 0
  outer loop
   vertex 61.3675 -13.4 0
   vertex 61.3675 13.4 36
   vertex 61.3675 13.4 0
  endloop
 endfacet
 facet normal 0 -1 0
  outer loop
   vertex 61.3675 13.4 0
   vertex 61.3675 13.4 36
   vertex 58.9675 13.4 36
  endloop
 endfacet
 facet normal 0 -1 0
  outer loop
   vertex 61.3675 13.4 0
   vertex 58.9675 13.4 36
   vertex 58.9675 13.4 0
  endloop
 endfacet
 facet normal 1 0 -0
  outer loop
   vertex 58.9675 13.4 0
   vertex 58.9675 13.4 36
   vertex 58.9675 -13.4 36
  endloop
 endfacet
 facet normal 1 0 0
  outer loop
   vertex 58.9675 13.4 0
   vertex 58.9675 -13.4 36
   vertex 58.9675 -13.4 0
  endloop
 endfacet
 facet normal 0 0 1
  outer loop
   vertex -58.9675 -11 0
   vertex -52.9675 -11 0
   vertex -52.9675 -5 0
  endloop
 endfacet
 facet normal 0 0 1
  outer loop
   vertex -58.9675 -11 0
   vertex -52.9675 -5 0
   vertex -58.9675 -5 0
  endloop
 endfacet
 facet normal 0 0 -1
  outer loop
   vertex -58.9675 -11 36
   vertex -52.9675 -5 36
   vertex -52.9675 -11 36
  endloop
 endfacet
 facet normal 0 0 -1
  outer loop
   vertex -58.9675 -11 36
   vertex -58.9675 -5 36
   vertex -52.9675 -5 36
  endloop
 endfacet
 facet normal 0 1 0
  outer loop
   vertex -58.9675 -11 0
   vertex -58.9675 -11 36
   vertex -52.9675 -11 36
  endloop
 endfacet
 facet normal 0 1 0
  outer loop
   vertex -58.9675 -11 0
   vertex -52.9675 -11 36
   vertex -52.9675 -11 0
  endloop
 endfacet
 facet normal -1 0 0
  outer loop
   vertex -52.9675 -11 0
   vertex -52.9675 -11 36
   vertex -52.9675 -5 36
  endloop
 endfacet
 facet normal -1 0 0
  outer loop
   vertex -52.9675 -11 0
   vertex -52.9675 -5 36
   vertex -52.9675 -5 0
  endloop
 endfacet
 facet normal 0 -1 0
  outer loop
   vertex -52.9675 -5 0
   vertex -52.9675 -5 36
   vertex -58.9675 -5 36
  endloop
 endfacet
 facet normal 0 -1 0
  outer loop
   vertex -52.9675 -5 0
   vertex -58.9675 -5 36
   vertex -58.9675 -5 0
  endloop
 endfacet
 facet normal 1 0 -0
  outer loop
   vertex -58.9675 -5 0
   vertex -58.9675 -5 36
   vertex -58.9675 -11 36
  endloop
 endfacet
 facet normal 1 0 0
  outer loop
   vertex -58.9675 -5 0
   vertex -58.9675 -11 36
   vertex -58.9675 -11 0
  endloop
 endfacet
 facet normal 0 0 1
  outer loop
   vertex -58.9675 5 0
   vertex -52.9675 5 0
   vertex -52.9675 11 0
  endloop
 endfacet
 facet normal 0 0 1
  outer loop
   vertex -58.9675 5 0
   vertex -52.9675 11 0
   vertex -58.9675 11 0
  endloop
 endfacet
 facet normal 0 0 -1
  outer loop
   vertex -58.9675 5 36
   vertex -52.9675 11 36
   vertex -52.9675 5 36
  endloop
 endfacet
 facet normal 0 0 -1
  outer loop
   vertex -58.9675 5 36
   vertex -58.9675 11 36
   vertex -52.9675 11 36
  endloop
 endfacet
 facet normal 0 1 0
  outer loop
   vertex -58.9675 5 0
   vertex -58.9675 5 36
   vertex -52.9675 5 36
  endloop
 endfacet
 facet normal 0 1 0
  outer loop
   vertex -58.9675 5 0
   vertex -52.9675 5 36
   vertex -52.9675 5 0
  endloop
 endfacet
 facet normal -1 0 0
  outer loop
   vertex -52.9675 5 0
   vertex -52.9675 5 36
   vertex -52.9675 11 36
  endloop
 endfacet
 facet normal -1 0 0
  outer loop
   vertex -52.9675 5 0
   vertex -52.9675 11 36
   vertex -52.9675 11 0
  endloop
 endfacet
 facet normal 0 -1 0
  outer loop
   vertex -52.9675 11 0
   vertex -52.9675 11 36
   vertex -58.9675 11 36
  endloop
 endfacet
 facet normal 0 -1 0
  outer loop
   vertex -52.9675 11 0
   vertex -58.9675 11 36
   vertex -58.9675 11 0
  endloop
 endfacet
 facet normal 1 0 -0
  outer loop
   vertex -58.9675 11 0
   vertex -58.9675 11 36
   vertex -58.9675 5 36
  endloop
 endfacet
 facet normal 1 0 0
  outer loop
   vertex -58.9675 11 0
   vertex -58.9675 5 36
   vertex -58.9675 5 0
  endloop
 endfacet
 facet normal 0 0 1
  outer loop
   vertex 52.9675 -11 0
   vertex 58.9675 -11 0
   vertex 58.9675 -5 0
  endloop
 endfacet
 facet normal 0 0 1
  outer loop
   vertex 52.9675 -11 0
   vertex 58.9675 -5 0
   vertex 52.9675 -5 0
  endloop
 endfacet
 facet normal 0 0 -1
  outer loop
   vertex 52.9675 -11 36
   vertex 58.9675 -5 36
   vertex 58.9675 -11 36
  endloop
 endfacet
 facet normal 0 0 -1
  outer loop
   vertex 52.9675 -11 36
   vertex 52.9675 -5 36
   vertex 58.9675 -5 36
  endloop
 endfacet
 facet normal 0 1 0
  outer loop
   vertex 52.9675 -11 0
   vertex 52.9675 -11 36
   vertex 58.9675 -11 36
  endloop
 endfacet
 facet normal 0 1 0
  outer loop
   vertex 52.9675 -11 0
   vertex 58.9675 -11 36
   vertex 58.9675 -11 0
  endloop
 endfacet
 facet normal -1 0 0
  outer loop
   vertex 58.9675 -11 0
   vertex 58.9675 -11 36
   vertex 58.9675 -5 36
  endloop
 endfacet
 facet normal -1 0 0
  outer loop
   vertex 58.9675 -11 0
   vertex 58.9675 -5 36
   vertex 58.9675 -5 0
  endloop
 endfacet
 facet normal 0 -1 0
  outer loop
   vertex 58.9675 -5 0
   vertex 58.9675 -5 36
   vertex 52.9675 -5 36
  endloop
 endfacet
 facet normal 0 -1 0
  outer loop
   vertex 58.9675 -5 0
   vertex 52.9675 -5 36
   vertex 52.9675 -5 0
  endloop
 endfacet
 facet normal 1 0 -0
  outer loop
   vertex 52.9675 -5 0
   vertex 52.9675 -5 36
   vertex 52.9675 -11 36
  endloop
 endfacet
 facet normal 1 0 0
  outer loop
   vertex 52.9675 -5 0
   vertex 52.9675 -11 36
   vertex 52.9675 -11 0
  endloop
 endfacet
 facet normal 0 0 1
  outer loop
   vertex 52.9675 5 0
   vertex 58.9675 5 0
   vertex 58.9675 11 0
  endloop
 endfacet
 facet normal 0 0 1
  outer loop
   vertex 52.9675 5 0
   vertex 58.9675 11 0
   vertex 52.9675 11 0
  endloop
 endfacet
 facet normal 0 0 -1
  outer loop
   vertex 52.9675 5 36
   vertex 58.9675 11 36
   vertex 58.9675 5 36
  endloop
 endfacet
 facet normal 0 0 -1
  outer loop
   vertex 52.9675 5 36
   vertex 52.9675 11 36
   vertex 58.9675 11 36
  endloop
 endfacet
 facet normal 0 1 0
  outer loop
   vertex 52.9675 5 0
   vertex 52.9675 5 36
   vertex 58.9675 5 36
  endloop
 endfacet
 facet normal 0 1 0
  outer loop
   vertex 52.9675 5 0
   vertex 58.9675 5 36
   vertex 58.9675 5 0
  endloop
 endfacet
 facet normal -1 0 0
  outer loop
   vertex 58.9675 5 0
   vertex 58.9675 5 36
   vertex 58.9675 11 36
  endloop
 endfacet
 facet normal -1 0 0
  outer loop
   vertex 58.9675 5 0
   vertex 58.9675 11 36
   vertex 58.9675 11 0
  endloop
 endfacet
 facet normal 0 -1 0
  outer loop
   vertex 58.9675 11 0
   vertex 58.9675 11 36
   vertex 52.9675 11 36
  endloop
 endfacet
 facet normal 0 -1 0
  outer loop
   vertex 58.9675 11 0
   vertex 52.9675 11 36
   vertex 52.9675 11 0
  endloop
 endfacet
 facet normal 1 0 -0
  outer loop
   vertex 52.9675 11 0
   vertex 52.9675 11 36
   vertex 52.9675 5 36
  endloop
 endfacet
 facet normal 1 0 0
  outer loop
   vertex 52.9675 11 0
   vertex 52.9675 5 36
   vertex 52.9675 5 0
  endloop
 endfacet
endsolid vacuum_battery_fit_check_tray
